<svg xmlns="http://www.w3.org/2000/svg" xmlns:xlink="http://www.w3.org/1999/xlink" viewBox="0 0 256.15 260.26"><defs><style>.cls-1,.cls-2,.cls-3,.cls-4,.cls-6{fill:none;}.cls-1,.cls-2,.cls-3,.cls-4,.cls-5,.cls-6{stroke-miterlimit:10;stroke-width:1.03px;}.cls-1{stroke:url(#Sfumatura_senza_nome_183);}.cls-2{stroke:url(#Sfumatura_senza_nome_183-2);}.cls-3{stroke:url(#Sfumatura_senza_nome_183-3);}.cls-4{stroke:url(#Sfumatura_senza_nome_183-4);}.cls-5{fill:url(#Sfumatura_senza_nome_183-5);stroke:url(#Sfumatura_senza_nome_183-6);}.cls-6{stroke:url(#Sfumatura_senza_nome_183-7);}</style><linearGradient id="Sfumatura_senza_nome_183" y1="199.87" x2="256.15" y2="199.87" gradientUnits="userSpaceOnUse"><stop offset="0" stop-color="#b48717"/><stop offset="0.65" stop-color="#eace76"/><stop offset="1" stop-color="#b48717"/></linearGradient><linearGradient id="Sfumatura_senza_nome_183-2" x1="105.37" y1="246.03" x2="150.77" y2="246.03" xlink:href="#Sfumatura_senza_nome_183"/><linearGradient id="Sfumatura_senza_nome_183-3" x1="105.37" y1="187.85" x2="150.77" y2="187.85" xlink:href="#Sfumatura_senza_nome_183"/><linearGradient id="Sfumatura_senza_nome_183-4" x1="6.3" y1="172.64" x2="249.85" y2="172.64" xlink:href="#Sfumatura_senza_nome_183"/><linearGradient id="Sfumatura_senza_nome_183-5" x1="98.82" y1="225.51" x2="157.33" y2="225.51" xlink:href="#Sfumatura_senza_nome_183"/><linearGradient id="Sfumatura_senza_nome_183-6" x1="98.3" y1="225.51" x2="157.85" y2="225.51" xlink:href="#Sfumatura_senza_nome_183"/><linearGradient id="Sfumatura_senza_nome_183-7" x1="2.08" y1="73.84" x2="254.18" y2="73.84" xlink:href="#Sfumatura_senza_nome_183"/></defs><g id="Livello_2" data-name="Livello 2"><g id="Livello_1-2" data-name="Livello 1"><path class="cls-1" d="M247.51,140h1.8a4.14,4.14,0,0,1,4.14,4l2.17,98.09a17.11,17.11,0,0,1-17.1,17.66H17.63A17.12,17.12,0,0,1,.52,242.09L2.69,144a4.16,4.16,0,0,1,4.15-4h1.8"/><rect class="cls-2" x="105.89" y="242.05" width="44.37" height="7.96"/><rect class="cls-3" x="105.89" y="166.72" width="44.37" height="42.25"/><path class="cls-4" d="M246.44,209H9.71a2.89,2.89,0,0,1-2.89-2.9l1-63.43a6.32,6.32,0,0,1,6.33-6.33H242a6.32,6.32,0,0,1,6.33,6.33l1,63.43A2.89,2.89,0,0,1,246.44,209Z"/><path class="cls-5" d="M157.06,209h-58a.27.27,0,0,0-.27.27v32.54a.27.27,0,0,0,.27.27h58a.27.27,0,0,0,.27-.27V209.24A.27.27,0,0,0,157.06,209Zm-5.41,17.15a.29.29,0,0,1-.29.29h-18.2a.29.29,0,0,0-.29.29v4.89a.29.29,0,0,0,.29.29h18.2a.29.29,0,0,1,.29.29v4a.29.29,0,0,1-.29.29H104.79a.29.29,0,0,1-.29-.29V224.9a.29.29,0,0,1,.29-.29H123a.29.29,0,0,0,.29-.29v-4.88a.29.29,0,0,0-.29-.29h-18.2a.29.29,0,0,1-.29-.29v-4a.29.29,0,0,1,.29-.29h46.57a.29.29,0,0,1,.29.29Z"/><path class="cls-6" d="M253.66,147.65C248.33,56.61,190.6.52,128,.52,65.65.52,7.82,56.61,2.59,145.79"/></g></g></svg>