<svg width="364" height="161" viewBox="0 0 364 161" fill="none" xmlns="http://www.w3.org/2000/svg">
<path d="M79.9002 96.2324C79.9854 95.6088 80.0989 95.0419 80.2408 94.475C80.3828 93.9081 80.5815 93.653 80.8937 93.653C81.1492 93.653 81.3479 93.6247 81.4615 93.5113C81.575 93.4262 81.6602 93.3129 81.7737 93.1711C81.8021 93.0011 81.8305 92.831 81.8305 92.6326H73.059L64.2876 122.112L55.5161 92.6326H46.6879C46.6311 92.8026 46.6879 92.9727 46.7446 93.1711C46.8298 93.4829 47.1137 93.6247 47.5962 93.6247C47.8517 93.6247 48.0788 93.8798 48.2207 94.3616C48.3627 94.8435 48.4762 95.4104 48.5614 96.0057C48.6182 96.6293 48.6749 97.2245 48.7033 97.7631C48.7033 98.3016 48.7317 98.6418 48.7317 98.7268V136.228C48.7317 136.228 48.7317 136.624 48.7033 137.191C48.7033 137.758 48.6465 138.325 48.5614 138.949C48.5046 139.572 48.3911 140.111 48.2207 140.593C48.0504 141.075 47.8517 141.33 47.5962 141.33C47.1137 141.33 46.8298 141.5 46.7446 141.868C46.6595 142.038 46.6311 142.208 46.6879 142.322H55.2038C55.2038 142.322 55.2038 142.038 55.1471 141.868C54.9768 141.528 54.6645 141.33 54.2671 141.33C54.0116 141.33 53.7845 141.075 53.6426 140.593C53.4723 140.111 53.3587 139.544 53.2736 138.949C53.1884 138.325 53.1316 137.758 53.1032 137.191C53.1032 136.653 53.0749 136.313 53.0749 136.228V106.267L63.2089 138.75L73.059 107.145V136.228C73.059 136.228 73.059 136.624 73.0023 137.191C72.9739 137.758 72.9171 138.325 72.8319 138.949C72.7752 139.572 72.6616 140.111 72.4913 140.593C72.321 141.075 72.1223 141.33 71.8668 141.33C71.3842 141.33 71.1004 141.5 71.0152 141.868C70.93 142.038 70.9017 142.208 70.9584 142.322H81.9157C81.9157 142.322 81.9157 142.038 81.8589 141.868C81.7737 141.727 81.6602 141.613 81.5466 141.5C81.4331 141.386 81.2344 141.33 80.9789 141.33C80.6666 141.33 80.4396 141.075 80.326 140.536C80.1841 139.998 80.0705 139.402 79.9854 138.75C79.9002 138.013 79.815 137.135 79.7867 136.171V98.8118C79.8434 97.8764 79.9002 97.0261 79.9854 96.2324" fill="black"/>
<path d="M93.6162 97.9048C93.6162 97.3662 93.673 96.7993 93.7581 96.1757C93.8149 95.5521 93.9568 94.9852 94.1271 94.4467C94.2975 93.9081 94.5246 93.653 94.78 93.653C95.0355 93.653 95.2342 93.6247 95.3478 93.5113C95.4613 93.4262 95.5465 93.3129 95.66 93.1711C95.6884 93.0011 95.7168 92.831 95.7168 92.6326H84.8447C84.8163 92.8026 84.8447 92.9727 84.9015 93.1711C84.9867 93.4829 85.2705 93.6247 85.7531 93.6247C86.0086 93.6247 86.2357 93.8798 86.3776 94.39C86.5195 94.9002 86.6331 95.4671 86.7182 96.0907C86.775 96.7143 86.8318 97.3095 86.8602 97.8481C86.8602 98.3867 86.8886 98.6985 86.8886 98.7551V136.256C86.8886 136.256 86.8886 136.653 86.8602 137.191C86.8602 137.73 86.8034 138.297 86.7182 138.92C86.6615 139.544 86.5479 140.111 86.3776 140.621C86.2073 141.131 86.0086 141.386 85.7531 141.386C85.2705 141.386 84.9867 141.557 84.9015 141.925C84.8163 142.095 84.7879 142.265 84.8447 142.379H95.7168C95.7168 142.379 95.7168 142.095 95.66 141.925C95.5749 141.783 95.4613 141.67 95.3478 141.557C95.2342 141.443 95.0639 141.386 94.78 141.386C94.4962 141.386 94.2975 141.131 94.1271 140.621C93.9568 140.111 93.8433 139.544 93.7581 138.892C93.7013 138.268 93.6446 137.673 93.6162 137.135C93.6162 136.596 93.5878 136.313 93.5878 136.284V98.7835C93.5878 98.7835 93.5878 98.4433 93.6162 97.9331" fill="black"/>
<path d="M120.126 127.185C119.558 127.1 119.047 127.1 118.593 127.185C118.196 127.27 117.855 127.469 117.543 127.752C117.23 128.036 117.088 128.546 117.088 129.311C117.088 129.85 117.003 130.672 116.861 131.834C116.691 132.996 116.407 134.158 115.953 135.349C115.499 136.539 114.903 137.588 114.108 138.495C113.313 139.402 112.263 139.884 110.985 139.912H107.409V98.8402C107.465 97.9048 107.522 97.0544 107.607 96.2607C107.692 95.6371 107.806 95.0702 107.948 94.5033C108.09 93.9648 108.289 93.6813 108.601 93.6813C108.856 93.6813 109.055 93.653 109.169 93.5396C109.282 93.4546 109.367 93.3412 109.481 93.1994C109.538 93.0294 109.538 92.8593 109.538 92.6609H98.6655C98.6087 92.831 98.6655 93.001 98.7223 93.1994C98.8075 93.5112 99.0913 93.653 99.5739 93.653C99.8294 93.653 100.056 93.9081 100.198 94.3899C100.34 94.8718 100.454 95.4387 100.539 96.034C100.596 96.6576 100.653 97.2528 100.681 97.7914C100.681 98.3299 100.709 98.6701 100.709 98.7551V136.256C100.709 136.256 100.709 136.653 100.681 137.22C100.681 137.758 100.624 138.353 100.539 138.977C100.482 139.601 100.369 140.139 100.198 140.621C100.028 141.103 99.8294 141.358 99.5739 141.358C99.0913 141.358 98.8075 141.528 98.7223 141.897C98.6371 142.067 98.6087 142.237 98.6655 142.35H120.154C119.53 139.969 119.189 137.843 119.161 135.944C119.132 134.073 119.161 132.486 119.303 131.21C119.473 129.708 119.757 128.376 120.154 127.157" fill="black"/>
<path d="M134.008 93.2C134.008 93.5118 134.235 93.6535 134.661 93.6535C134.917 93.6535 135.059 93.9086 135.087 94.4472C135.087 94.9857 135.087 95.5526 134.945 96.1762C134.832 96.7998 134.69 97.3667 134.548 97.9053C134.406 98.4439 134.321 98.7273 134.321 98.7557L130.602 116.897L126.429 98.7557C126.429 98.7557 126.344 98.4155 126.202 97.8486C126.06 97.3101 125.918 96.7148 125.805 96.0912C125.691 95.4676 125.634 94.9007 125.634 94.3905C125.634 93.8803 125.776 93.6252 126.032 93.6252C126.486 93.6252 126.685 93.4551 126.685 93.1716C126.685 93.0016 126.685 92.8315 126.628 92.6331H115.756C115.756 92.8032 115.813 92.9732 115.954 93.1716C116.182 93.4834 116.494 93.6252 116.948 93.6252C117.203 93.6252 117.516 93.8803 117.856 94.4188C118.197 94.9574 118.481 95.5243 118.736 96.1479C118.992 96.7715 119.247 97.3384 119.446 97.877C119.645 98.4155 119.758 98.699 119.758 98.7273L126.06 125.967V136.228C126.06 136.228 126.06 136.653 126.032 137.192C126.032 137.73 125.975 138.326 125.89 138.949C125.833 139.573 125.691 140.111 125.521 140.593C125.35 141.075 125.123 141.33 124.868 141.33C124.414 141.33 124.158 141.5 124.073 141.869C124.016 142.039 124.016 142.209 124.016 142.322H134.888C134.888 142.322 134.888 142.039 134.832 141.869C134.661 141.529 134.377 141.33 133.98 141.33C133.724 141.33 133.497 141.075 133.355 140.593C133.185 140.111 133.072 139.544 132.986 138.949C132.901 138.326 132.844 137.759 132.816 137.192C132.816 136.653 132.788 136.313 132.788 136.228V124.692L138.692 98.7273C138.692 98.7273 138.777 98.3872 138.948 97.8203C139.118 97.2817 139.345 96.6865 139.601 96.0629C139.856 95.4393 140.14 94.8724 140.452 94.3621C140.764 93.8519 141.048 93.5968 141.304 93.5968C141.758 93.5968 142.07 93.4268 142.297 93.1433C142.439 92.9732 142.524 92.8032 142.553 92.6047H134.065C134.008 92.7748 134.008 92.9449 134.008 93.1433" fill="black"/>
<path d="M167.673 97.9048C167.673 97.3662 167.73 96.7993 167.815 96.1757C167.872 95.5521 168.013 94.9852 168.184 94.4467C168.354 93.9081 168.581 93.653 168.837 93.653C169.092 93.653 169.291 93.6247 169.404 93.5113C169.518 93.4262 169.603 93.3129 169.717 93.1711C169.745 93.0011 169.773 92.831 169.773 92.6326H158.901C158.873 92.8026 158.901 92.9727 158.958 93.1711C159.043 93.4829 159.327 93.6247 159.81 93.6247C160.065 93.6247 160.292 93.8798 160.434 94.39C160.576 94.9002 160.69 95.4671 160.775 96.0907C160.832 96.7143 160.888 97.3095 160.917 97.8481C160.917 98.3867 160.945 98.6985 160.945 98.7551V136.256C160.945 136.256 160.945 136.653 160.917 137.191C160.917 137.73 160.86 138.297 160.775 138.92C160.718 139.544 160.605 140.111 160.434 140.621C160.264 141.131 160.065 141.386 159.81 141.386C159.327 141.386 159.043 141.557 158.958 141.925C158.873 142.095 158.845 142.265 158.901 142.379H169.773C169.773 142.379 169.773 142.095 169.717 141.925C169.632 141.783 169.518 141.67 169.404 141.557C169.291 141.443 169.121 141.386 168.837 141.386C168.553 141.386 168.354 141.131 168.184 140.621C168.013 140.111 167.9 139.544 167.815 138.892C167.758 138.268 167.701 137.673 167.673 137.135C167.673 136.596 167.644 136.313 167.644 136.284V98.7835C167.644 98.7835 167.644 98.4433 167.673 97.9331" fill="black"/>
<path d="M197.989 97.7914C197.989 97.2528 198.046 96.6576 198.131 96.034C198.188 95.4104 198.301 94.8718 198.472 94.39C198.614 93.9081 198.841 93.653 199.096 93.653C199.352 93.653 199.55 93.6247 199.664 93.5113C199.777 93.4262 199.863 93.3129 199.948 93.1711C200.005 93.0011 200.005 92.831 200.005 92.6326H191.205C191.148 92.8026 191.205 92.9727 191.261 93.1711C191.347 93.4829 191.631 93.6247 192.113 93.6247C192.369 93.6247 192.596 93.8798 192.738 94.3616C192.908 94.8435 193.021 95.4104 193.107 96.0057C193.192 96.6293 193.249 97.1962 193.277 97.7631C193.277 98.33 193.305 98.6418 193.305 98.7268V124.011L181.582 92.6326H172.753C172.697 92.8026 172.753 92.9727 172.81 93.1711C172.895 93.4829 173.179 93.6247 173.662 93.6247C173.917 93.6247 174.144 93.8798 174.286 94.3616C174.428 94.8435 174.542 95.4104 174.627 96.0057C174.684 96.6293 174.74 97.1962 174.769 97.7631C174.769 98.33 174.797 98.6418 174.797 98.7268V136.228C174.797 136.228 174.797 136.624 174.769 137.191C174.769 137.73 174.712 138.325 174.627 138.949C174.57 139.572 174.457 140.111 174.286 140.593C174.116 141.075 173.917 141.33 173.662 141.33C173.179 141.33 172.895 141.5 172.81 141.868C172.725 142.038 172.697 142.208 172.753 142.322H181.241C181.241 142.322 181.241 142.038 181.184 141.868C181.014 141.5 180.73 141.33 180.333 141.33C180.02 141.33 179.793 141.075 179.68 140.536C179.538 139.998 179.453 139.431 179.339 138.807C179.254 138.07 179.169 137.191 179.14 136.228V105.615L193.305 142.322H199.976C199.976 142.322 199.976 142.038 199.919 141.868C199.834 141.727 199.721 141.613 199.636 141.5C199.522 141.386 199.323 141.33 199.068 141.33C198.812 141.33 198.614 141.103 198.472 140.678C198.33 140.224 198.216 139.714 198.131 139.147C198.046 138.58 197.989 138.013 197.961 137.503C197.961 136.965 197.932 136.596 197.932 136.369V98.7268C197.932 98.7268 197.932 98.33 197.961 97.7631" fill="black"/>
<path d="M244.545 110.008C244.545 107.259 244.062 104.821 243.097 102.695C242.132 100.569 240.798 98.7268 239.123 97.2245C237.448 95.7222 235.433 94.5884 233.105 93.823C230.777 93.0577 228.308 92.6609 225.639 92.6609H216.953C216.896 92.831 216.953 93.001 217.01 93.1994C217.095 93.5112 217.379 93.653 217.861 93.653C218.117 93.653 218.344 93.9081 218.486 94.3899C218.628 94.8718 218.741 95.4387 218.827 96.034C218.883 96.6576 218.94 97.2245 218.968 97.7914C218.968 98.3299 218.997 98.6701 218.997 98.7551V136.256C218.997 136.256 218.997 136.653 218.968 137.22C218.968 137.758 218.912 138.353 218.827 138.977C218.77 139.601 218.656 140.139 218.486 140.621C218.316 141.103 218.117 141.358 217.861 141.358C217.379 141.358 217.095 141.528 217.01 141.897C216.925 142.067 216.896 142.237 216.953 142.35H227.825C227.825 142.35 227.825 142.067 227.768 141.897C227.683 141.755 227.57 141.642 227.484 141.528C227.371 141.415 227.201 141.358 226.917 141.358C226.633 141.358 226.434 141.103 226.292 140.621C226.15 140.139 226.008 139.572 225.923 138.977C225.838 138.353 225.781 137.787 225.753 137.22C225.753 136.681 225.724 136.341 225.724 136.256V126.108C226.264 126.193 226.775 126.278 227.314 126.335C227.853 126.392 228.364 126.448 228.904 126.448C230.948 126.448 232.906 126.08 234.808 125.315C236.71 124.549 238.385 123.472 239.804 122.055C241.252 120.638 242.387 118.909 243.267 116.896C244.147 114.884 244.573 112.559 244.573 110.008M237.136 115.564C236.455 117.265 235.546 118.71 234.411 119.929C233.275 121.148 231.998 122.083 230.579 122.735C229.159 123.387 227.712 123.727 226.264 123.727H225.668V95.382C227.115 95.4104 228.592 95.7222 230.068 96.3174C231.544 96.8843 232.878 97.763 234.07 98.9535C235.262 100.144 236.228 101.646 236.994 103.46C237.76 105.275 238.129 107.4 238.129 109.895C238.129 111.964 237.789 113.863 237.108 115.564" fill="black"/>
<path d="M271.572 141.358C271.317 141.358 271.033 141.103 270.778 140.593C270.522 140.083 270.295 139.516 270.125 138.864C269.954 138.212 269.784 137.645 269.67 137.106C269.529 136.568 269.472 136.284 269.472 136.256L268.28 129.226C268.989 128.886 269.557 128.319 269.983 127.611C270.409 126.874 270.636 126.108 270.721 125.286C270.778 124.464 270.636 123.671 270.295 122.877C269.954 122.083 269.33 121.431 268.507 120.893C268.563 121.233 268.507 121.601 268.45 121.942C268.365 122.253 268.251 122.594 268.109 122.962C267.967 123.33 267.74 123.727 267.371 124.124L262.914 98.7551C262.914 98.7551 262.886 98.415 262.829 97.9048C262.773 97.3662 262.716 96.7993 262.659 96.1757C262.602 95.5521 262.631 94.9852 262.687 94.4467C262.744 93.9081 262.914 93.653 263.198 93.653C263.482 93.653 263.653 93.6247 263.738 93.5113C263.823 93.4262 263.908 93.3129 263.936 93.1711C263.965 93.0011 263.965 92.831 263.936 92.6326H252.582C252.497 92.8026 252.468 92.9727 252.525 93.1711C252.525 93.4829 252.78 93.6247 253.263 93.6247C253.519 93.6247 253.66 93.8798 253.689 94.39C253.717 94.9002 253.689 95.4671 253.632 96.0907C253.575 96.7143 253.462 97.2812 253.377 97.8481C253.263 98.3867 253.206 98.6985 253.206 98.7551L244.264 136.256C244.264 136.256 244.179 136.596 244.037 137.106C243.895 137.645 243.697 138.212 243.441 138.864C243.186 139.487 242.93 140.083 242.646 140.593C242.363 141.103 242.079 141.358 241.823 141.358C241.397 141.358 241.085 141.528 240.886 141.897C240.801 142.067 240.716 142.237 240.688 142.35H249.175C249.175 142.35 249.289 142.067 249.232 141.897C249.147 141.528 248.891 141.358 248.494 141.358C248.324 141.358 248.182 141.245 248.097 140.99C248.011 140.734 247.955 140.451 247.955 140.083C247.955 139.714 247.955 139.346 248.011 138.92C248.04 138.495 248.125 138.098 248.21 137.702C248.466 136.653 249.062 135.774 249.97 135.094C250.879 134.414 251.986 133.847 253.263 133.365C254.54 132.911 255.931 132.514 257.436 132.203C258.94 131.891 260.445 131.551 261.949 131.21L262.801 136.256C262.801 136.256 262.829 136.653 262.943 137.191C263.028 137.73 263.085 138.297 263.113 138.92C263.113 139.544 263.113 140.111 263.056 140.621C263 141.131 262.829 141.386 262.545 141.386C262.262 141.386 262.091 141.443 262.006 141.557C261.921 141.67 261.836 141.783 261.807 141.925C261.751 142.095 261.751 142.265 261.807 142.379H272.679C272.679 142.379 272.623 142.095 272.538 141.925C272.367 141.557 272.055 141.386 271.601 141.386M253.802 129.17C251.929 130.048 250.51 130.927 249.488 131.834L256.726 101.76L261.183 126.93C258.146 127.554 255.676 128.291 253.831 129.17" fill="black"/>
<path d="M307.936 147.057C307.482 147.057 307.141 147.199 306.857 147.511C306.573 147.822 306.431 148.191 306.431 148.644V148.701C305.58 148.701 304.785 148.219 304.047 147.256C303.309 146.292 302.542 145.045 301.748 143.571C300.981 142.097 300.186 140.453 299.363 138.639C298.54 136.825 297.66 135.095 296.666 133.451C295.701 131.807 294.623 130.305 293.487 128.973C292.323 127.641 291.046 126.734 289.626 126.195C291.386 125.883 293.061 125.288 294.594 124.409C296.155 123.531 297.49 122.397 298.653 121.036C299.817 119.676 300.726 118.06 301.407 116.189C302.088 114.347 302.429 112.278 302.429 110.038C302.429 107.289 301.946 104.851 300.981 102.725C300.016 100.571 298.682 98.7568 297.007 97.2545C295.332 95.7522 293.317 94.6184 290.989 93.8531C288.661 93.0878 286.192 92.6909 283.523 92.6909H274.837C274.78 92.861 274.837 93.0311 274.894 93.2295C274.979 93.5413 275.263 93.683 275.745 93.683C276.001 93.683 276.228 93.9381 276.37 94.42C276.54 94.9018 276.625 95.4688 276.711 96.064C276.767 96.6876 276.824 97.2545 276.852 97.8214C276.852 98.3883 276.881 98.7001 276.881 98.7851V136.286C276.881 136.286 276.881 136.683 276.852 137.25C276.852 137.817 276.796 138.383 276.711 139.007C276.654 139.631 276.54 140.169 276.37 140.651C276.228 141.133 276.001 141.388 275.745 141.388C275.263 141.388 274.979 141.558 274.894 141.927C274.809 142.097 274.78 142.267 274.837 142.38H285.709C285.709 142.38 285.709 142.097 285.652 141.927C285.567 141.785 285.454 141.672 285.368 141.558C285.255 141.445 285.056 141.388 284.801 141.388C284.545 141.388 284.318 141.133 284.176 140.651C284.034 140.169 283.892 139.602 283.807 139.007C283.722 138.383 283.665 137.817 283.637 137.25C283.637 136.711 283.609 136.371 283.609 136.286V126.223C284.233 126.393 284.943 126.96 285.766 127.867C286.589 128.803 287.441 129.965 288.321 131.354C289.201 132.743 290.109 134.245 291.074 135.889C292.011 137.533 292.948 139.149 293.828 140.736C294.708 142.323 295.559 143.797 296.354 145.186C297.149 146.547 297.887 147.624 298.54 148.446C299.335 149.466 300.215 150.203 301.151 150.657C302.117 151.111 303.025 151.394 303.933 151.507C304.842 151.621 305.693 151.592 306.46 151.479C307.226 151.337 307.822 151.139 308.22 150.884C308.702 150.572 309.043 150.232 309.242 149.835C309.44 149.438 309.525 149.07 309.525 148.701C309.525 148.248 309.384 147.879 309.071 147.567C308.759 147.256 308.39 147.114 307.936 147.114M284.176 123.729H283.58V95.3837C285.028 95.4404 286.504 95.7239 287.98 96.3191C289.456 96.886 290.79 97.7647 291.983 98.9552C293.175 100.146 294.14 101.648 294.906 103.434C295.644 105.22 296.042 107.345 296.042 109.84C296.042 111.909 295.701 113.808 295.02 115.537C294.339 117.266 293.43 118.74 292.295 119.959C291.159 121.178 289.882 122.113 288.491 122.765C287.072 123.417 285.624 123.757 284.176 123.757" fill="black"/>
<path d="M314.406 97.9048C314.406 97.3662 314.463 96.7993 314.548 96.1757C314.605 95.5521 314.747 94.9852 314.917 94.4467C315.087 93.9081 315.314 93.653 315.57 93.653C315.825 93.653 316.024 93.6247 316.138 93.5113C316.251 93.4262 316.336 93.3129 316.45 93.1711C316.478 93.0011 316.507 92.831 316.507 92.6326H305.635C305.606 92.8026 305.635 92.9727 305.691 93.1711C305.776 93.4829 306.06 93.6247 306.543 93.6247C306.798 93.6247 307.025 93.8798 307.167 94.39C307.309 94.9002 307.423 95.4671 307.508 96.0907C307.565 96.7143 307.622 97.3095 307.65 97.8481C307.65 98.3867 307.678 98.6985 307.678 98.7551V136.256C307.678 136.256 307.678 136.653 307.65 137.191C307.65 137.73 307.593 138.297 307.508 138.92C307.451 139.544 307.338 140.111 307.167 140.621C306.997 141.131 306.798 141.386 306.543 141.386C306.06 141.386 305.776 141.557 305.691 141.925C305.606 142.095 305.578 142.265 305.635 142.379H316.507C316.507 142.379 316.507 142.095 316.45 141.925C316.365 141.783 316.251 141.67 316.138 141.557C316.024 141.443 315.854 141.386 315.57 141.386C315.286 141.386 315.087 141.131 314.917 140.621C314.747 140.111 314.633 139.544 314.548 138.892C314.491 138.268 314.434 137.673 314.406 137.135C314.406 136.596 314.378 136.313 314.378 136.284V98.7835C314.378 98.7835 314.378 98.4433 314.406 97.9331" fill="black"/>
<path d="M43.0042 92.6334H42.4932H21.4587C21.402 92.8034 21.4587 92.9735 21.5155 93.1719C21.6007 93.4837 21.8845 93.6254 22.3671 93.6254C22.6226 93.6254 22.8497 93.8522 22.9916 94.3624C23.1335 94.8443 23.2471 95.4112 23.3323 96.0064C23.389 96.63 23.4458 97.1969 23.4742 97.7638C23.4742 98.3024 23.5026 98.6425 23.5026 98.7276V136.228C23.5026 136.228 23.5026 136.625 23.4742 137.192C23.4742 137.731 23.4174 138.326 23.3323 138.95C23.2755 139.573 23.1619 140.112 22.9916 140.594C22.8213 141.075 22.6226 141.331 22.3671 141.331C21.8845 141.331 21.6007 141.501 21.5155 141.869C21.4303 142.039 21.402 142.209 21.4587 142.323H42.9474C42.3229 139.942 41.9823 137.816 41.9539 135.917C41.8971 134.046 41.9539 132.458 42.0958 131.183C42.2661 129.681 42.55 128.32 42.9474 127.13C42.3797 127.045 41.8687 127.045 41.4145 127.13C41.0171 127.215 40.6765 127.413 40.3642 127.696C40.052 127.98 39.91 128.49 39.91 129.255C39.91 129.794 39.8249 130.616 39.6829 131.778C39.5126 132.94 39.2288 134.102 38.7746 135.293C38.3204 136.483 37.7243 137.532 36.9294 138.439C36.1346 139.346 35.0843 139.828 33.8069 139.857H30.2302V119.788C30.4005 119.788 30.7695 119.788 31.3373 119.816C31.905 119.845 32.4727 119.902 33.0689 119.987C33.665 120.072 34.2043 120.185 34.6585 120.355C35.1127 120.497 35.3682 120.724 35.3682 120.979C35.3682 121.432 35.5385 121.687 35.8224 121.772C35.9927 121.829 36.163 121.829 36.3617 121.829V115.196C36.1914 115.196 36.0211 115.196 35.8224 115.253C35.6804 115.338 35.5669 115.451 35.4817 115.536C35.3966 115.65 35.3398 115.848 35.3398 116.103C35.3398 116.358 35.1127 116.557 34.6301 116.698C34.1759 116.84 33.6366 116.954 33.0405 117.039C32.4444 117.124 31.8766 117.18 31.3089 117.209C30.7695 117.209 30.4005 117.237 30.2018 117.237V95.0427H33.8353C35.1127 95.071 36.163 95.5529 36.9578 96.46C37.7527 97.367 38.3772 98.4158 38.803 99.6063C39.2571 100.797 39.541 101.959 39.7113 103.121C39.8533 104.255 39.9384 105.105 39.9384 105.644C39.9384 106.381 40.0804 106.919 40.3926 107.203C40.7049 107.486 41.0455 107.685 41.4429 107.77C41.8971 107.855 42.3797 107.855 42.9758 107.77C42.5784 106.579 42.2945 105.219 42.1242 103.716C41.9823 102.441 41.9539 100.853 41.9823 98.9827C42.039 97.1119 42.3513 94.9577 42.9758 92.5767" fill="black"/>
<path d="M338.276 119.505C337.084 117.946 335.806 116.472 334.444 115.111C333.081 113.751 331.804 112.362 330.612 111.001C329.448 109.641 328.454 108.252 327.688 106.863C326.921 105.474 326.524 104 326.524 102.469C326.524 100.655 326.808 99.1246 327.375 97.8774C328.397 96.1483 329.703 95.2129 331.378 95.0712C332.712 94.9578 333.791 95.4397 334.614 96.4884C335.437 97.5372 336.033 98.7277 336.317 100.06C336.63 101.392 336.63 102.611 336.374 103.745C336.119 104.879 335.551 105.474 334.728 105.531C334.813 106.551 335.295 107.288 336.175 107.798C337.055 108.308 337.992 108.45 339.014 108.252C340.008 108.053 340.916 107.43 341.654 106.409C342.42 105.389 342.733 103.887 342.562 101.846C342.449 100.4 342.08 99.0395 341.455 97.7923C340.831 96.5451 340.008 95.468 339.014 94.561C338.02 93.6539 336.828 92.9736 335.494 92.5201C334.132 92.0382 332.684 91.8682 331.151 91.9815C329.221 92.1233 327.517 92.5768 326.07 93.2854C325.019 93.7389 324.054 94.3059 323.203 95.0145C322.238 95.8365 321.443 96.8569 320.818 98.0474C320.194 99.2663 319.881 100.74 319.881 102.469C319.881 104.538 320.279 106.409 321.045 108.025C321.812 109.669 322.805 111.2 323.969 112.589C325.133 114.006 326.41 115.366 327.801 116.67C329.164 117.974 330.441 119.306 331.633 120.667C332.797 122.028 333.791 123.501 334.557 125.117C335.324 126.705 335.721 128.49 335.721 130.474C335.721 133.337 335.153 135.633 333.99 137.334C332.854 139.035 331.435 139.885 329.732 139.885C328.397 139.885 327.375 139.318 326.609 138.241C325.843 137.164 325.388 135.917 325.19 134.556C324.991 133.196 325.076 131.977 325.417 130.871C325.757 129.766 326.354 129.227 327.205 129.227C327.205 128.207 326.779 127.413 325.956 126.846C325.105 126.279 324.196 126.053 323.174 126.194C322.152 126.336 321.216 126.875 320.392 127.81C319.541 128.774 319.115 130.248 319.115 132.289C319.115 133.734 319.37 135.123 319.91 136.427C320.449 137.731 321.187 138.865 322.096 139.828C323.032 140.792 324.139 141.586 325.445 142.153C326.751 142.72 328.199 143.003 329.732 143.003C331.804 143.003 333.649 142.663 335.21 141.983C336.771 141.302 338.106 140.367 339.156 139.205C340.235 138.043 341.029 136.71 341.569 135.208C342.108 133.706 342.364 132.147 342.364 130.503C342.364 128.349 341.966 126.364 341.2 124.579C340.433 122.793 339.44 121.12 338.276 119.533" fill="black"/>
<path d="M226.92 9.43945H216.9C215.821 9.43945 214.969 10.3182 214.969 11.3669V54.225C214.969 55.3021 215.821 56.1524 216.9 56.1524H226.92C245.315 56.1524 249.175 43.5672 249.175 32.9944C249.175 18.7084 240.432 9.43945 226.92 9.43945ZM228.623 49.1795H223.059V16.4974H226.75C235.89 16.4974 241.369 22.6767 241.369 33.0511C241.369 44.1624 233.903 49.1512 228.623 49.1512" fill="black"/>
<path d="M256.271 56.1808C255.192 56.1808 254.34 55.3304 254.34 54.2533V11.3669C254.34 10.2898 255.192 9.43945 256.271 9.43945H260.529C261.607 9.43945 262.459 10.2898 262.459 11.3669V54.2533C262.459 55.3304 261.579 56.1808 260.529 56.1808" fill="black"/>
<path d="M169.834 14.5416C169.834 15.6187 168.954 16.4691 167.904 16.4691H146.216V28.6292H164.809C165.888 28.6292 166.74 29.4796 166.74 30.5567V33.6747C166.74 34.7518 165.888 35.6021 164.809 35.6021H146.216V48.9811H167.847C168.925 48.9811 169.777 49.8598 169.777 50.9086V54.2533C169.777 55.3304 168.925 56.1808 167.847 56.1808H139.687C138.609 56.1808 137.757 55.3304 137.757 54.2533V11.3669C137.757 10.2898 138.609 9.43945 139.687 9.43945H167.932C169.011 9.43945 169.862 10.3182 169.862 11.3669" fill="black"/>
<path d="M101.539 11.3669C101.539 10.3182 102.39 9.43945 103.469 9.43945H131.543C132.622 9.43945 133.474 10.2898 133.474 11.3669V14.4849C133.474 15.562 132.594 16.4124 131.543 16.4124H109.515V28.5158H124.361C125.44 28.5158 126.292 29.3945 126.292 30.4433V33.8164C126.292 34.8935 125.44 35.7439 124.361 35.7439H109.515V54.2533C109.515 55.3304 108.664 56.1808 107.585 56.1808H103.441C102.362 56.1808 101.51 55.3304 101.51 54.2533" fill="black"/>
<path d="M183.433 24.7742V54.2533C183.433 55.3304 182.581 56.1808 181.502 56.1808H177.244C176.166 56.1808 175.314 55.3021 175.314 54.2533V11.3669C175.314 10.2898 176.194 9.43945 177.244 9.43945H181.474C182.865 9.43945 183.603 9.66622 184.171 10.6866L200.635 40.3925V11.3669C200.635 10.2898 201.487 9.43945 202.565 9.43945H206.766C207.845 9.43945 208.697 10.2898 208.697 11.3669V54.2533C208.697 55.3304 207.817 56.1808 206.766 56.1808H202.707C201.316 56.1808 200.578 55.954 200.01 54.9336" fill="black"/>
</svg>
