<svg xmlns="http://www.w3.org/2000/svg" xmlns:xlink="http://www.w3.org/1999/xlink" viewBox="0 0 256.15 349.18"><defs><style>.cls-1,.cls-2,.cls-3,.cls-4,.cls-6{fill:none;}.cls-1,.cls-2,.cls-3,.cls-4,.cls-5,.cls-6{stroke-miterlimit:10;stroke-width:1.03px;}.cls-1{stroke:url(#Sfumatura_senza_nome_183);}.cls-2{stroke:url(#Sfumatura_senza_nome_183-2);}.cls-3{stroke:url(#Sfumatura_senza_nome_183-3);}.cls-4{stroke:url(#Sfumatura_senza_nome_183-4);}.cls-5{fill:url(#Sfumatura_senza_nome_183-5);stroke:url(#Sfumatura_senza_nome_183-6);}.cls-6{stroke:url(#Sfumatura_senza_nome_183-7);}.cls-7{fill:url(#Sfumatura_senza_nome_183-8);}.cls-8{fill:url(#Sfumatura_senza_nome_183-9);}.cls-9{fill:url(#Sfumatura_senza_nome_183-10);}.cls-10{fill:url(#Sfumatura_senza_nome_183-11);}.cls-11{fill:url(#Sfumatura_senza_nome_183-12);}.cls-12{fill:url(#Sfumatura_senza_nome_183-13);}.cls-13{fill:url(#Sfumatura_senza_nome_183-14);}.cls-14{fill:url(#Sfumatura_senza_nome_183-15);}.cls-15{fill:url(#Sfumatura_senza_nome_183-16);}</style><linearGradient id="Sfumatura_senza_nome_183" y1="288.78" x2="256.15" y2="288.78" gradientUnits="userSpaceOnUse"><stop offset="0" stop-color="#b48717"/><stop offset="0.65" stop-color="#eace76"/><stop offset="1" stop-color="#b48717"/></linearGradient><linearGradient id="Sfumatura_senza_nome_183-2" x1="105.37" y1="334.95" x2="150.77" y2="334.95" xlink:href="#Sfumatura_senza_nome_183"/><linearGradient id="Sfumatura_senza_nome_183-3" x1="105.37" y1="276.76" x2="150.77" y2="276.76" xlink:href="#Sfumatura_senza_nome_183"/><linearGradient id="Sfumatura_senza_nome_183-4" x1="6.3" y1="261.55" x2="249.85" y2="261.55" xlink:href="#Sfumatura_senza_nome_183"/><linearGradient id="Sfumatura_senza_nome_183-5" x1="98.82" y1="314.42" x2="157.33" y2="314.42" xlink:href="#Sfumatura_senza_nome_183"/><linearGradient id="Sfumatura_senza_nome_183-6" x1="98.3" y1="314.42" x2="157.85" y2="314.42" xlink:href="#Sfumatura_senza_nome_183"/><linearGradient id="Sfumatura_senza_nome_183-7" x1="2.08" y1="162.75" x2="254.18" y2="162.75" xlink:href="#Sfumatura_senza_nome_183"/><linearGradient id="Sfumatura_senza_nome_183-8" x1="-3.24" y1="44.3" x2="235.74" y2="-5.49" xlink:href="#Sfumatura_senza_nome_183"/><linearGradient id="Sfumatura_senza_nome_183-9" x1="-2.47" y1="47.97" x2="236.51" y2="-1.81" xlink:href="#Sfumatura_senza_nome_183"/><linearGradient id="Sfumatura_senza_nome_183-10" x1="-4.77" y1="36.93" x2="234.21" y2="-12.86" xlink:href="#Sfumatura_senza_nome_183"/><linearGradient id="Sfumatura_senza_nome_183-11" x1="-5.83" y1="31.85" x2="233.15" y2="-17.94" xlink:href="#Sfumatura_senza_nome_183"/><linearGradient id="Sfumatura_senza_nome_183-12" x1="-3.93" y1="40.97" x2="235.05" y2="-8.82" xlink:href="#Sfumatura_senza_nome_183"/><linearGradient id="Sfumatura_senza_nome_183-13" x1="-0.28" y1="58.48" x2="238.69" y2="8.69" xlink:href="#Sfumatura_senza_nome_183"/><linearGradient id="Sfumatura_senza_nome_183-14" x1="-0.07" y1="59.52" x2="238.91" y2="9.73" xlink:href="#Sfumatura_senza_nome_183"/><linearGradient id="Sfumatura_senza_nome_183-15" x1="0.19" y1="60.77" x2="239.17" y2="10.98" xlink:href="#Sfumatura_senza_nome_183"/><linearGradient id="Sfumatura_senza_nome_183-16" x1="0.46" y1="62.05" x2="239.44" y2="12.26" xlink:href="#Sfumatura_senza_nome_183"/></defs><g id="Livello_2" data-name="Livello 2"><g id="Livello_1-2" data-name="Livello 1"><path class="cls-1" d="M247.51,228.9h1.8a4.14,4.14,0,0,1,4.14,4l2.17,98.1a17.1,17.1,0,0,1-17.1,17.65H17.63A17.12,17.12,0,0,1,.52,331l2.17-98.1a4.16,4.16,0,0,1,4.15-4h1.8"/><rect class="cls-2" x="105.89" y="330.96" width="44.37" height="7.96"/><rect class="cls-3" x="105.89" y="255.64" width="44.37" height="42.25"/><path class="cls-4" d="M246.44,297.88H9.71A2.89,2.89,0,0,1,6.82,295l1-63.44a6.33,6.33,0,0,1,6.33-6.33H242a6.33,6.33,0,0,1,6.33,6.33l1,63.44A2.89,2.89,0,0,1,246.44,297.88Z"/><path class="cls-5" d="M157.06,297.88h-58a.27.27,0,0,0-.27.27v32.54a.27.27,0,0,0,.27.27h58a.27.27,0,0,0,.27-.27V298.15A.27.27,0,0,0,157.06,297.88ZM151.65,315a.29.29,0,0,1-.29.29h-18.2a.29.29,0,0,0-.29.29v4.89a.29.29,0,0,0,.29.29h18.2a.29.29,0,0,1,.29.29v4a.29.29,0,0,1-.29.29H104.79a.29.29,0,0,1-.29-.29V313.82a.29.29,0,0,1,.29-.29H123a.29.29,0,0,0,.29-.29v-4.89a.29.29,0,0,0-.29-.29h-18.2a.29.29,0,0,1-.29-.29v-4a.29.29,0,0,1,.29-.29h46.57a.29.29,0,0,1,.29.29Z"/><path class="cls-6" d="M253.66,236.56C248.33,145.53,190.6,89.43,128,89.43,65.65,89.43,7.82,145.53,2.59,234.7"/><path class="cls-7" d="M151.81,0h-5.3a1,1,0,0,0-1,1V23.71a1,1,0,0,0,1,1h5.3c9.72,0,11.76-6.66,11.76-12.25C163.57,4.9,159,0,151.81,0m.91,21h-2.93V3.74h2c4.83,0,7.72,3.27,7.72,8.76,0,5.88-3.94,8.53-6.74,8.53"/><rect class="cls-8" x="166.3" width="4.3" height="24.73" rx="1.02"/><path class="cls-9" d="M121.64,2.69a1,1,0,0,1-1,1H109.15v6.42H119a1,1,0,0,1,1,1v1.65a1,1,0,0,1-1,1h-9.84v7.08h11.43a1,1,0,0,1,1,1v1.77a1,1,0,0,1-1,1H105.7a1,1,0,0,1-1-1V1a1,1,0,0,1,1-1h14.92a1,1,0,0,1,1,1Z"/><path class="cls-10" d="M85.55,1a1,1,0,0,1,1-1h14.84a1,1,0,0,1,1,1V2.67a1,1,0,0,1-1,1H89.78v6.4h7.86a1,1,0,0,1,1,1v1.78a1,1,0,0,1-1,1H89.78v9.79a1,1,0,0,1-1,1H86.58a1,1,0,0,1-1-1Z"/><path class="cls-11" d="M128.83,8.11v15.6a1,1,0,0,1-1,1h-2.25a1,1,0,0,1-1-1V1a1,1,0,0,1,1-1h2.23c.73,0,1.12.12,1.42.66l8.7,15.73V1a1,1,0,0,1,1-1h2.22a1,1,0,0,1,1,1V23.71a1,1,0,0,1-1,1H139c-.73,0-1.12-.11-1.42-.66Z"/><path class="cls-12" d="M118.46,33.91h-.37v1.7a.68.68,0,0,1-.15.49.5.5,0,0,1-.39.16.51.51,0,0,1-.4-.16.77.77,0,0,1-.14-.49V31.54a.72.72,0,0,1,.16-.51.7.7,0,0,1,.5-.15h1.75a5.28,5.28,0,0,1,.61,0,1.62,1.62,0,0,1,.47.12,1.32,1.32,0,0,1,.73.76,1.62,1.62,0,0,1,.1.54,1.3,1.3,0,0,1-.34,1,1.89,1.89,0,0,1-1,.5,2,2,0,0,1,.55.45,5.64,5.64,0,0,1,.46.63,4.5,4.5,0,0,1,.32.6,1.41,1.41,0,0,1,.11.37.35.35,0,0,1-.07.21.4.4,0,0,1-.18.16.57.57,0,0,1-.27.06.56.56,0,0,1-.3-.08.88.88,0,0,1-.21-.22c-.06-.08-.14-.21-.24-.38l-.43-.71a3.2,3.2,0,0,0-.41-.6,1.14,1.14,0,0,0-.37-.29A1.35,1.35,0,0,0,118.46,33.91Zm.62-2.23h-1v1.46h1a2.44,2.44,0,0,0,.65-.07.72.72,0,0,0,.4-.23.64.64,0,0,0,.14-.44.66.66,0,0,0-.42-.64A2.33,2.33,0,0,0,119.08,31.68Z"/><path class="cls-13" d="M124.67,30.79a2.89,2.89,0,0,1,1.42.33,2.15,2.15,0,0,1,.89.95,3.26,3.26,0,0,1,.3,1.45,3.5,3.5,0,0,1-.16,1.11,2.34,2.34,0,0,1-.5.87,2.09,2.09,0,0,1-.82.57,2.93,2.93,0,0,1-1.11.19,2.82,2.82,0,0,1-1.11-.2,2.18,2.18,0,0,1-.82-.56,2.62,2.62,0,0,1-.5-.88,3.59,3.59,0,0,1-.16-1.11,3.33,3.33,0,0,1,.17-1.12,2.5,2.5,0,0,1,.51-.87,2.18,2.18,0,0,1,.81-.54A2.85,2.85,0,0,1,124.67,30.79Zm1.53,2.72a2.6,2.6,0,0,0-.19-1,1.41,1.41,0,0,0-1.34-.86,1.45,1.45,0,0,0-.59.12,1.35,1.35,0,0,0-.47.35,1.65,1.65,0,0,0-.31.59,2.55,2.55,0,0,0-.12.81,2.66,2.66,0,0,0,.12.82,1.57,1.57,0,0,0,.32.6,1.38,1.38,0,0,0,.48.36,1.41,1.41,0,0,0,.59.12,1.5,1.5,0,0,0,.75-.2,1.4,1.4,0,0,0,.55-.64A2.41,2.41,0,0,0,126.2,33.51Z"/><path class="cls-14" d="M130,35.38,129.14,32v3.66a.65.65,0,0,1-.13.45.48.48,0,0,1-.36.15.46.46,0,0,1-.36-.15.65.65,0,0,1-.14-.45V31.47a.52.52,0,0,1,.18-.47.91.91,0,0,1,.49-.12h.34a1.48,1.48,0,0,1,.43.05.36.36,0,0,1,.2.2,3.52,3.52,0,0,1,.15.46l.77,2.9.77-2.9a1.87,1.87,0,0,1,.15-.46.36.36,0,0,1,.2-.2,1.43,1.43,0,0,1,.43-.05h.33a.87.87,0,0,1,.49.12.52.52,0,0,1,.18.47v4.19a.65.65,0,0,1-.13.45.47.47,0,0,1-.37.15.45.45,0,0,1-.35-.15.65.65,0,0,1-.13-.45V32l-.85,3.38c-.06.21-.1.37-.14.48a.7.7,0,0,1-.19.28.61.61,0,0,1-.39.12.55.55,0,0,1-.32-.08.51.51,0,0,1-.2-.21,1,1,0,0,1-.12-.28C130.05,35.59,130,35.49,130,35.38Z"/><path class="cls-15" d="M137.75,35.57l-.25-.66h-2.15l-.26.68a2,2,0,0,1-.25.53.38.38,0,0,1-.34.14.52.52,0,0,1-.36-.14.49.49,0,0,1-.16-.34.85.85,0,0,1,0-.22,2.35,2.35,0,0,1,.12-.33l1.35-3.43c0-.1.09-.22.14-.36a2.81,2.81,0,0,1,.18-.35.73.73,0,0,1,.24-.22.9.9,0,0,1,.74,0,.88.88,0,0,1,.25.22,1.59,1.59,0,0,1,.15.29c0,.1.1.24.16.41l1.38,3.42a1.7,1.7,0,0,1,.17.56.45.45,0,0,1-.16.34.5.5,0,0,1-.37.15.46.46,0,0,1-.21,0,.44.44,0,0,1-.15-.12,1.27,1.27,0,0,1-.14-.24C137.83,35.75,137.79,35.66,137.75,35.57Zm-2.12-1.47h1.58l-.8-2.18Z"/></g></g></svg>