<svg xmlns="http://www.w3.org/2000/svg" xmlns:xlink="http://www.w3.org/1999/xlink" viewBox="0 0 85.04 36.26"><defs><style>.cls-1{fill:url(#Sfumatura_senza_nome_183);}.cls-2{fill:url(#Sfumatura_senza_nome_183-2);}.cls-3{fill:url(#Sfumatura_senza_nome_183-3);}.cls-4{fill:url(#Sfumatura_senza_nome_183-4);}.cls-5{fill:url(#Sfumatura_senza_nome_183-5);}.cls-6{fill:url(#Sfumatura_senza_nome_183-6);}.cls-7{fill:url(#Sfumatura_senza_nome_183-7);}.cls-8{fill:url(#Sfumatura_senza_nome_183-8);}.cls-9{fill:url(#Sfumatura_senza_nome_183-9);}</style><linearGradient id="Sfumatura_senza_nome_183" x1="-88.79" y1="44.3" x2="150.19" y2="-5.49" gradientUnits="userSpaceOnUse"><stop offset="0" stop-color="#b48717"/><stop offset="0.65" stop-color="#eace76"/><stop offset="1" stop-color="#b48717"/></linearGradient><linearGradient id="Sfumatura_senza_nome_183-2" x1="-88.03" y1="47.97" x2="150.95" y2="-1.81" xlink:href="#Sfumatura_senza_nome_183"/><linearGradient id="Sfumatura_senza_nome_183-3" x1="-90.33" y1="36.93" x2="148.65" y2="-12.86" xlink:href="#Sfumatura_senza_nome_183"/><linearGradient id="Sfumatura_senza_nome_183-4" x1="-91.39" y1="31.85" x2="147.59" y2="-17.94" xlink:href="#Sfumatura_senza_nome_183"/><linearGradient id="Sfumatura_senza_nome_183-5" x1="-89.49" y1="40.97" x2="149.49" y2="-8.82" xlink:href="#Sfumatura_senza_nome_183"/><linearGradient id="Sfumatura_senza_nome_183-6" x1="-85.84" y1="58.48" x2="153.14" y2="8.69" xlink:href="#Sfumatura_senza_nome_183"/><linearGradient id="Sfumatura_senza_nome_183-7" x1="-85.62" y1="59.52" x2="153.36" y2="9.73" xlink:href="#Sfumatura_senza_nome_183"/><linearGradient id="Sfumatura_senza_nome_183-8" x1="-85.36" y1="60.77" x2="153.62" y2="10.98" xlink:href="#Sfumatura_senza_nome_183"/><linearGradient id="Sfumatura_senza_nome_183-9" x1="-85.09" y1="62.05" x2="153.88" y2="12.26" xlink:href="#Sfumatura_senza_nome_183"/></defs><g id="Livello_2" data-name="Livello 2"><g id="Livello_1-2" data-name="Livello 1"><path class="cls-1" d="M66.25,0H61a1,1,0,0,0-1,1V23.71a1,1,0,0,0,1,1h5.29C76,24.73,78,18.07,78,12.48,78,4.9,73.4,0,66.25,0m.91,21H64.23V3.74h2C71,3.74,73.9,7,73.9,12.5,73.9,18.38,70,21,67.16,21"/><rect class="cls-2" x="80.74" width="4.3" height="24.73" rx="1.02"/><path class="cls-3" d="M36.09,2.69a1,1,0,0,1-1,1H23.6v6.42h9.83a1,1,0,0,1,1,1v1.65a1,1,0,0,1-1,1H23.6v7.08H35a1,1,0,0,1,1,1v1.77a1,1,0,0,1-1,1H20.14a1,1,0,0,1-1-1V1a1,1,0,0,1,1-1H35.06a1,1,0,0,1,1,1Z"/><path class="cls-4" d="M0,1A1,1,0,0,1,1,0H15.86a1,1,0,0,1,1,1V2.67a1,1,0,0,1-1,1H4.23v6.4h7.85a1,1,0,0,1,1,1v1.78a1,1,0,0,1-1,1H4.23v9.79a1,1,0,0,1-1,1H1a1,1,0,0,1-1-1Z"/><path class="cls-5" d="M43.28,8.11v15.6a1,1,0,0,1-1,1H40a1,1,0,0,1-1-1V1a1,1,0,0,1,1-1h2.24c.73,0,1.12.12,1.41.66l8.7,15.73V1a1,1,0,0,1,1-1H55.6a1,1,0,0,1,1,1V23.71a1,1,0,0,1-1,1H53.44c-.73,0-1.12-.11-1.41-.66Z"/><path class="cls-6" d="M32.91,33.91h-.38v1.7a.68.68,0,0,1-.15.49.48.48,0,0,1-.38.16.49.49,0,0,1-.4-.16.77.77,0,0,1-.14-.49V31.54a.72.72,0,0,1,.15-.51.74.74,0,0,1,.51-.15h1.74a5.46,5.46,0,0,1,.62,0,1.64,1.64,0,0,1,.46.12,1.32,1.32,0,0,1,.44.3,1.16,1.16,0,0,1,.29.46,1.4,1.4,0,0,1,.1.54,1.34,1.34,0,0,1-.33,1,1.89,1.89,0,0,1-1,.5,2,2,0,0,1,.54.45,4.61,4.61,0,0,1,.46.63,3.58,3.58,0,0,1,.32.6,1.21,1.21,0,0,1,.12.37.44.44,0,0,1-.07.21.55.55,0,0,1-.18.16.6.6,0,0,1-.27.06.56.56,0,0,1-.3-.08.77.77,0,0,1-.22-.22l-.24-.38-.43-.71a3.2,3.2,0,0,0-.41-.6,1,1,0,0,0-.37-.29A1.26,1.26,0,0,0,32.91,33.91Zm.61-2.23h-1v1.46h1a2.39,2.39,0,0,0,.65-.07.75.75,0,0,0,.41-.23.64.64,0,0,0,.13-.44.68.68,0,0,0-.11-.39.7.7,0,0,0-.31-.25A2.28,2.28,0,0,0,33.52,31.68Z"/><path class="cls-7" d="M39.12,30.79a2.83,2.83,0,0,1,1.41.33,2.18,2.18,0,0,1,.9.95,3.26,3.26,0,0,1,.3,1.45,3.5,3.5,0,0,1-.17,1.11,2.21,2.21,0,0,1-.5.87,2.13,2.13,0,0,1-.81.57,2.93,2.93,0,0,1-1.11.19,2.75,2.75,0,0,1-1.11-.2,2.18,2.18,0,0,1-.82-.56,2.46,2.46,0,0,1-.5-.88,3.59,3.59,0,0,1-.17-1.11,3.33,3.33,0,0,1,.18-1.12A2.16,2.16,0,0,1,38,31,2.86,2.86,0,0,1,39.12,30.79Zm1.52,2.72a2.43,2.43,0,0,0-.19-1,1.35,1.35,0,0,0-.53-.64,1.56,1.56,0,0,0-1.4-.1,1.35,1.35,0,0,0-.47.35,1.83,1.83,0,0,0-.31.59,2.88,2.88,0,0,0-.11.81,3,3,0,0,0,.11.82,1.9,1.9,0,0,0,.32.6,1.38,1.38,0,0,0,.48.36,1.45,1.45,0,0,0,.59.12,1.51,1.51,0,0,0,.76-.2,1.46,1.46,0,0,0,.55-.64A2.57,2.57,0,0,0,40.64,33.51Z"/><path class="cls-8" d="M44.43,35.38,43.59,32v3.66a.65.65,0,0,1-.14.45.46.46,0,0,1-.36.15.45.45,0,0,1-.35-.15.65.65,0,0,1-.14-.45V31.47a.52.52,0,0,1,.18-.47.87.87,0,0,1,.49-.12h.33a1.51,1.51,0,0,1,.44.05.39.39,0,0,1,.2.2,2.62,2.62,0,0,1,.14.46l.77,2.9.77-2.9a3.52,3.52,0,0,1,.15-.46.36.36,0,0,1,.2-.2,1.51,1.51,0,0,1,.44-.05H47a.89.89,0,0,1,.49.12.52.52,0,0,1,.18.47v4.19a.65.65,0,0,1-.14.45.46.46,0,0,1-.36.15.45.45,0,0,1-.35-.15.65.65,0,0,1-.14-.45V32l-.85,3.38c0,.21-.1.37-.13.48a.73.73,0,0,1-.2.28.57.57,0,0,1-.39.12.51.51,0,0,1-.31-.08.53.53,0,0,1-.21-.21,1.49,1.49,0,0,1-.11-.28Z"/><path class="cls-9" d="M52.2,35.57l-.26-.66H49.79l-.25.68a2.42,2.42,0,0,1-.25.53.4.4,0,0,1-.35.14.52.52,0,0,1-.35-.14.45.45,0,0,1-.16-.34.57.57,0,0,1,0-.22,2.35,2.35,0,0,1,.12-.33l1.35-3.43c0-.1.08-.22.14-.36a1.9,1.9,0,0,1,.17-.35.73.73,0,0,1,.24-.22.84.84,0,0,1,.37-.08.86.86,0,0,1,.38.08.73.73,0,0,1,.24.22,2.69,2.69,0,0,1,.16.29l.16.41,1.38,3.42a1.62,1.62,0,0,1,.16.56.48.48,0,0,1-.15.34.51.51,0,0,1-.37.15.48.48,0,0,1-.22,0,.44.44,0,0,1-.15-.12,2.39,2.39,0,0,1-.13-.24A3,3,0,0,1,52.2,35.57ZM50.07,34.1h1.59l-.8-2.18Z"/></g></g></svg>