<svg width="129" height="123" viewBox="0 0 129 123" fill="none" xmlns="http://www.w3.org/2000/svg">
<g id="Layer_1" clip-path="url(#clip0_1976_13652)">
<path id="Vector" d="M124.035 67.8789H127.449C128.306 67.8789 129 68.5761 129 69.4329V103.915C129 104.771 128.304 105.469 127.449 105.469H124.035C123.18 105.469 122.484 104.771 122.484 103.915V69.431C122.484 68.5742 123.18 67.877 124.035 67.877V67.8789Z" fill="#1D1D1B"/>
<path id="Vector_2" d="M65.648 80.2007V103.916C65.648 104.775 64.954 105.47 64.0969 105.47H60.68C59.8229 105.47 59.1289 104.775 59.1289 103.916V69.4344C59.1289 68.5757 59.8229 67.8804 60.68 67.8804H64.0704C65.1835 67.8804 65.7732 68.0571 66.2226 68.8854L79.4182 92.787V69.4363C79.4182 68.5776 80.1122 67.8823 80.9693 67.8823H84.335C85.1921 67.8823 85.8861 68.5776 85.8861 69.4363V103.918C85.8861 104.777 85.1921 105.472 84.335 105.472H81.0717C79.9586 105.472 79.3689 105.297 78.9195 104.467L65.6461 80.2026L65.648 80.2007Z" fill="#1D1D1B"/>
<path id="Vector_3" d="M49.9203 119.421H49.3496V122.006C49.3496 122.346 49.2737 122.597 49.1258 122.759C48.976 122.92 48.7807 123 48.5399 123C48.2801 123 48.0791 122.916 47.9369 122.747C47.7947 122.578 47.7227 122.331 47.7227 122.006V115.813C47.7227 115.461 47.8004 115.207 47.9578 115.049C48.1152 114.891 48.3693 114.813 48.7201 114.813H51.3671C51.7331 114.813 52.0441 114.829 52.3039 114.861C52.5636 114.891 52.7969 114.956 53.0055 115.051C53.2576 115.157 53.4795 115.309 53.6748 115.507C53.8682 115.704 54.0161 115.934 54.1166 116.197C54.2171 116.459 54.2664 116.736 54.2664 117.029C54.2664 117.629 54.0977 118.108 53.7601 118.467C53.4226 118.826 52.9106 119.08 52.2223 119.231C52.5105 119.384 52.7874 119.611 53.0491 119.911C53.3126 120.211 53.5459 120.53 53.7526 120.868C53.9592 121.206 54.1204 121.512 54.2342 121.786C54.3499 122.057 54.4067 122.246 54.4067 122.348C54.4067 122.451 54.3726 122.559 54.3043 122.664C54.2361 122.768 54.1451 122.85 54.0275 122.911C53.9099 122.971 53.7753 123.002 53.6217 123.002C53.4397 123.002 53.2861 122.958 53.1609 122.873C53.0358 122.787 52.9296 122.677 52.8405 122.546C52.7514 122.415 52.63 122.221 52.4764 121.964L51.8241 120.878C51.5909 120.479 51.3804 120.175 51.1965 119.966C51.0126 119.757 50.8248 119.614 50.6352 119.538C50.4456 119.46 50.2067 119.422 49.9166 119.422L49.9203 119.421ZM50.8514 116.039H49.3496V118.252H50.8078C51.1984 118.252 51.5283 118.218 51.7938 118.15C52.0612 118.081 52.264 117.967 52.4044 117.804C52.5447 117.64 52.6148 117.416 52.6148 117.131C52.6148 116.909 52.558 116.711 52.4442 116.54C52.3304 116.371 52.173 116.242 51.972 116.159C51.7824 116.079 51.407 116.037 50.8495 116.037L50.8514 116.039Z" fill="#1D1D1B"/>
<path id="Vector_4" d="M59.3358 114.679C60.1683 114.679 60.8831 114.848 61.4804 115.186C62.0777 115.524 62.529 116.007 62.8362 116.63C63.1434 117.255 63.297 117.986 63.297 118.828C63.297 119.451 63.2136 120.015 63.0448 120.524C62.876 121.034 62.6257 121.474 62.2882 121.847C61.9526 122.219 61.5392 122.506 61.05 122.703C60.5608 122.901 59.9995 123 59.3681 123C58.7367 123 58.1773 122.899 57.6805 122.696C57.1837 122.493 56.7684 122.206 56.4366 121.837C56.1047 121.467 55.8525 121.022 55.6838 120.503C55.5131 119.983 55.4297 119.423 55.4297 118.818C55.4297 118.214 55.5188 117.633 55.6952 117.116C55.8715 116.599 56.1294 116.161 56.465 115.798C56.8006 115.435 57.2102 115.157 57.6919 114.966C58.1735 114.774 58.7215 114.677 59.3358 114.677V114.679ZM61.6492 118.818C61.6492 118.229 61.5544 117.718 61.3648 117.287C61.1752 116.856 60.904 116.529 60.5513 116.307C60.1986 116.085 59.7947 115.974 59.3377 115.974C59.0135 115.974 58.712 116.035 58.4371 116.159C58.1621 116.282 57.9232 116.459 57.7241 116.694C57.525 116.928 57.3676 117.228 57.2538 117.591C57.1382 117.956 57.0813 118.364 57.0813 118.818C57.0813 119.272 57.1382 119.69 57.2538 120.059C57.3695 120.429 57.5307 120.735 57.7411 120.978C57.9516 121.222 58.1924 121.404 58.4636 121.526C58.7367 121.645 59.0344 121.706 59.3586 121.706C59.7758 121.706 60.1569 121.602 60.5058 121.393C60.8547 121.184 61.1315 120.863 61.3382 120.426C61.5449 119.991 61.6473 119.455 61.6473 118.816L61.6492 118.818Z" fill="#1D1D1B"/>
<path id="Vector_5" d="M67.4047 121.651L66.1172 116.523V122.08C66.1172 122.388 66.0489 122.618 65.9124 122.772C65.7759 122.926 65.5938 123.002 65.3663 123.002C65.1388 123.002 64.9681 122.926 64.8297 122.774C64.6913 122.622 64.6211 122.39 64.6211 122.078V115.71C64.6211 115.359 64.7121 115.121 64.896 115C65.0781 114.876 65.3246 114.815 65.6356 114.815H66.1399C66.4433 114.815 66.6633 114.842 66.7998 114.897C66.9363 114.952 67.0387 115.051 67.1032 115.194C67.1696 115.336 67.2435 115.57 67.3289 115.891L68.495 120.3L69.6631 115.891C69.7465 115.57 69.8224 115.336 69.8868 115.194C69.9532 115.051 70.0537 114.952 70.1902 114.897C70.3267 114.842 70.5467 114.815 70.8501 114.815H71.3545C71.6655 114.815 71.912 114.876 72.094 115C72.276 115.123 72.367 115.359 72.367 115.71V122.078C72.367 122.386 72.2988 122.616 72.1623 122.77C72.0257 122.924 71.8418 123 71.6124 123C71.3962 123 71.2198 122.922 71.0814 122.77C70.943 122.616 70.8728 122.386 70.8728 122.078V116.521L69.5853 121.649C69.5019 121.982 69.4336 122.227 69.3805 122.382C69.3274 122.538 69.2307 122.681 69.0866 122.808C68.9444 122.935 68.7472 123 68.495 123C68.3054 123 68.1442 122.958 68.0134 122.876C67.8825 122.795 67.7802 122.688 67.7062 122.561C67.6322 122.434 67.5754 122.291 67.5336 122.135C67.4919 121.98 67.4483 121.818 67.4047 121.649V121.651Z" fill="#1D1D1B"/>
<path id="Vector_6" d="M79.1801 121.951L78.7971 120.94H75.5318L75.1488 121.972C74.999 122.375 74.8719 122.646 74.7657 122.787C74.6596 122.928 74.487 122.998 74.2462 122.998C74.0414 122.998 73.8613 122.924 73.7039 122.774C73.5465 122.624 73.4688 122.453 73.4688 122.263C73.4688 122.152 73.4877 122.04 73.5237 121.923C73.5598 121.805 73.6204 121.641 73.7039 121.434L75.7594 116.208C75.8181 116.058 75.8883 115.877 75.9698 115.667C76.0514 115.456 76.1405 115.281 76.2334 115.142C76.3263 115.003 76.4496 114.891 76.6013 114.804C76.753 114.718 76.9407 114.675 77.1625 114.675C77.3844 114.675 77.5778 114.718 77.7295 114.804C77.8812 114.889 78.0025 115 78.0974 115.136C78.1903 115.271 78.2699 115.418 78.3325 115.573C78.397 115.729 78.4785 115.936 78.5771 116.197L80.6762 121.391C80.8411 121.786 80.9227 122.073 80.9227 122.253C80.9227 122.434 80.8449 122.61 80.6895 122.766C80.534 122.922 80.3462 123 80.1282 123C80.0011 123 79.8912 122.977 79.8001 122.931C79.7091 122.886 79.6314 122.823 79.5707 122.745C79.5081 122.667 79.4418 122.546 79.3697 122.382C79.2995 122.219 79.237 122.076 79.1858 121.951H79.1801ZM75.9584 119.717H78.359L77.1474 116.396L75.9584 119.717Z" fill="#1D1D1B"/>
<path id="Vector_7" d="M100.499 67.8784H92.4691C91.6139 67.8784 90.918 68.5738 90.918 69.4325V103.914C90.918 104.773 91.612 105.468 92.4691 105.468H100.499C115.248 105.468 118.345 95.3422 118.345 86.8462C118.345 75.3238 111.34 67.8784 100.499 67.8784ZM101.884 99.8353H97.4333V73.5627H100.391C107.726 73.5627 112.106 78.5383 112.106 86.8747C112.106 95.8134 106.127 99.8353 101.884 99.8353Z" fill="#1D1D1B"/>
<path id="Vector_8" d="M70.2303 47.4136C74.7887 43.1029 82.7376 44.4442 88.4072 47.6416C88.0962 43.3176 89.1846 40.6655 91.7843 39.4743C95.6488 37.7055 102.067 38.095 106.186 41.2753C97.4843 27.1938 77.7942 19.9289 76.465 20.2614C76.3986 22.8604 73.0727 33.2581 64.8242 36.0565C64.8242 36.0565 70.3877 47.3699 70.2322 47.4117L70.2303 47.4136Z" fill="#63C3D1"/>
<path id="Vector_9" d="M65.9297 33.5981C72.7105 30.4862 74.4038 25.4327 74.2198 19.7256C74.163 17.955 74.618 17.6985 75.7008 17.9854C82.7906 19.8548 102.651 31.6014 106.783 41.5906C107.35 42.9623 106.924 43.0592 106.214 41.9326C99.9474 32.0003 87.3851 26.033 80.0336 23.037C78.0521 22.2296 77.0679 22.6228 76.3303 24.8931C75.9719 25.9912 74.4777 30.2316 69.066 34.1699" fill="#FBBA00"/>
<path id="Vector_10" d="M44.5437 50.9514C41.1172 47.849 31.788 46.8155 26.6682 52.0267C26.4198 49.215 25.9363 47.0473 24.6033 46.0708C21.3911 43.715 15.2626 46.6502 10.6094 50.7443C17.2043 37.5577 33.7031 26.7135 35.569 27.1448C36.8811 27.4487 34.5602 34.6262 48.4859 41.2984L44.5437 50.9514Z" fill="#63C3D1"/>
<path id="Vector_11" d="M47.5572 39.7025C42.5626 37.2631 38.5578 33.7883 37.2779 28.8241C36.8854 27.2986 37.3064 24.9238 36.8532 24.6749C34.2004 23.2254 14.0382 40.3218 10.2799 50.8259C10.0296 51.527 10.1547 52.1064 10.8165 51.033C18.5359 38.5018 32.7669 28.4689 34.6346 29.3599C35.5012 29.774 36.6996 36.3493 46.4005 41.5187" fill="#FBBA00"/>
<path id="Vector_12" d="M106.989 41.4998C102.834 31.4516 82.9524 19.574 75.7847 17.6836C74.4005 17.3189 73.8734 17.8375 73.9341 19.7354C74.1483 26.3753 71.6112 30.572 65.8828 33.2299L66.1691 33.8492C72.0644 31.1097 74.7039 26.5501 74.4839 19.7221C74.4384 18.3144 74.6736 18.0294 75.6501 18.2859C82.757 20.1591 102.462 31.7423 106.569 41.6803C106.952 42.6093 106.899 42.6188 106.386 41.8037C101.725 34.4192 92.9017 27.9864 80.1232 22.779C77.8459 21.8518 76.8864 22.342 76.0862 24.7985C75.4586 26.7268 73.7293 30.5112 68.9357 33.9993C68.8409 34.0677 68.82 34.1988 68.8883 34.2938C68.9565 34.3888 69.0893 34.4097 69.1822 34.3413C74.0725 30.7829 75.9251 26.9453 76.5679 24.9694C77.2391 22.9081 78.2536 22.6004 79.9298 23.2843C92.6248 28.4594 101.4 34.7668 106.012 42.0754C106.935 43.5383 107.648 43.1051 106.985 41.5017L106.989 41.4998Z" fill="#0D181C"/>
<path id="Vector_13" d="M86.7369 43.4392C85.4892 39.3223 80.3297 27.4503 78.8127 24.8438C78.3311 24.0174 78.6592 23.797 79.1825 24.5949C80.6862 26.8823 85.8135 38.0646 87.0479 43.3442C87.2281 44.1155 86.9607 44.1782 86.7369 43.4392Z" fill="#0D181C"/>
<path id="Vector_14" d="M88.1767 47.2654C82.0842 43.9635 74.7459 42.8939 70.1211 47.2217L70.3885 47.5485C74.4975 43.6785 82.4388 44.5106 88.3037 47.8182C88.4876 47.9227 88.6355 47.8847 88.6166 47.6187C88.3966 44.5657 88.865 41.1575 91.878 39.7478C95.458 38.0722 101.448 38.2146 105.593 41.0986L104.935 40.1848C101.192 38.0304 95.5547 37.3616 91.6903 39.1703C88.7398 40.5514 88.0136 43.3632 88.1748 47.2673L88.1767 47.2654Z" fill="#0D181C"/>
<path id="Vector_15" d="M37.5885 28.7521C37.2017 27.2493 37.6814 24.6409 37.1201 24.3331C34.2284 22.7563 14.2577 39.5279 10.0842 50.7558C9.63858 51.9565 10.2226 52.4029 10.9982 51.1453C18.6815 38.6729 32.7987 28.9554 34.492 29.7115C35.2334 30.0421 36.6233 36.7142 45.8862 41.5474L46.0019 40.9774C36.9286 36.0588 35.6752 29.4436 34.8144 29.0333C32.7456 28.0492 18.2397 38.5856 10.6398 50.923C10.3478 51.396 10.3004 51.3808 10.4805 50.8983C14.3904 40.4626 34.4143 23.5466 36.6082 25.0341C36.9817 25.2868 36.6082 27.4317 36.9874 28.906C38.0682 33.0951 41.2273 36.6534 46.2579 39.374L46.3849 38.7337C41.5364 36.0816 38.6295 32.7873 37.5885 28.7521Z" fill="#0D181C"/>
<path id="Vector_16" d="M27.408 47.8964C28.3409 43.466 30.9614 34.8845 33.5706 30.9652C33.8607 30.5282 34.1281 30.6821 33.8759 31.1419C31.6877 35.1296 28.813 43.7928 27.7303 47.9781C27.5957 48.4986 27.2942 48.4397 27.408 47.8983V47.8964Z" fill="#0D181C"/>
<path id="Vector_17" d="M26.8377 51.5666C26.6045 49.2071 26.2404 46.8969 24.8145 45.852C20.9898 43.0479 14.4044 47.4459 11.8919 49.4085L11.2188 50.5009C15.5781 46.8228 21.3767 44.108 24.4257 46.3421C25.8081 47.3566 26.2575 49.7447 26.4604 52.0454C26.485 52.3323 26.5647 52.4349 26.8206 52.1746C31.1857 47.7309 39.6332 47.8449 43.6456 50.5237L43.7518 50.0886C39.6351 47.425 31.8361 46.8722 26.8396 51.5686L26.8377 51.5666Z" fill="#0D181C"/>
<path id="Vector_18" d="M80.416 90.0363C89.787 86.3545 94.9465 77.2562 103.038 77.2562C107.702 77.2562 113.772 81.3219 117.081 88.3721C117.369 88.9857 117.659 89.0047 117.949 88.4101C122.809 78.4569 110.55 59.5138 84.6255 61.7461L80.4141 90.0363H80.416Z" fill="#FBBA00"/>
<path id="Vector_19" d="M110.344 77.3797C101.138 71.9196 92.5516 77.5449 88.2169 77.3379L80.4141 90.0344C89.7851 86.3525 94.9446 77.2543 103.036 77.2543C107.7 77.2543 113.77 81.3199 117.079 88.3701C117.189 88.6057 117.301 88.752 117.411 88.8128C116.914 83.328 113.675 79.3555 110.342 77.3797H110.344Z" fill="#FFF1C4"/>
<path id="Vector_20" d="M59.9258 9.91308L60.0149 9.6813C60.4738 8.49011 60.8056 7.62949 61.7234 7.15074C61.9851 7.01395 62.3339 6.94936 62.7928 6.94936C63.5001 6.94936 64.3553 7.10134 65.2598 7.26283C66.1415 7.42051 67.0517 7.582 67.776 7.582C68.5004 7.582 68.9308 7.42241 69.1072 7.09374C69.1849 6.94746 69.1887 6.75368 69.1128 6.5181C68.6653 5.10083 65.7262 2.73746 63.3977 1.57097C63.0488 1.39619 62.8516 1.02572 62.9313 0.691353C62.9938 0.421579 63.2214 0.254395 63.521 0.254395C63.7011 0.254395 63.904 0.313289 64.1277 0.429178C66.7388 1.79135 69.7955 4.3751 70.3909 6.33952C70.5502 6.86197 70.5274 7.31602 70.3245 7.68839C69.9377 8.39512 69.1185 8.73899 67.8158 8.73899C66.8507 8.73899 65.7566 8.5528 64.7895 8.38942C64.031 8.26023 63.3143 8.14054 62.827 8.14054C62.5103 8.14054 62.3757 8.19184 62.3169 8.23364C61.7575 8.6402 61.456 9.41722 61.3024 9.99857L61.2512 10.1923L59.9258 9.91498V9.91308Z" fill="#FFF1C4"/>
<path id="Vector_21" d="M48.2181 14.3477C48.1555 12.9836 48.239 10.6867 48.6106 10.4606C48.9823 10.2346 51.1496 10.5841 52.0162 10.9147L48.2181 14.3477Z" fill="#FBBA00"/>
<path id="Vector_22" d="M86.0115 41.1349C94.0457 38.6804 94.7378 31.4724 93.418 28.5467C92.2215 25.8927 87.7788 22.0702 81.5384 24.4659C74.4751 27.1751 69.6151 33.0322 65.8398 33.1082L65.7583 32.5325C66.1754 31.5655 66.2702 30.4522 65.9043 29.2725C68.0565 23.2424 71.206 23.497 71.043 18.1623C70.8837 12.9226 66.2608 10.0577 62.055 10.3313C58.3726 7.29154 53.1486 8.53592 49.6198 11.8682C42.6531 18.453 47.0409 26.2498 46.8342 34.1398C46.766 36.733 46.4645 39.0812 46.0378 41.2983C45.926 41.6365 45.8198 41.9708 45.7212 42.2995C38.7242 45.1188 31.0958 40.0596 28.8564 46.3195C27.2712 50.7499 35.806 57.0402 42.6 55.0435C41.6937 59.3485 41.2177 64.0885 42.0236 70.1433C42.071 70.5042 42.1317 70.8671 42.2056 71.2338C39.4106 77.3056 41.4661 88.6836 48.1578 93.1387C50.5375 94.7231 53.1391 95.6787 55.699 96.0112C53.3097 98.5038 50.2114 104.481 51.643 106.871C53.6757 110.264 61.7061 111.867 65.1837 106.498C67.5179 102.894 68.9287 95.5591 68.5969 92.3332C70.2428 92.3503 71.9399 92.2135 73.6806 91.9057C76.5609 94.8675 79.8261 96.6856 82.6363 95.73C86.313 94.4799 87.1985 88.7691 86.9406 83.2596C89.0928 81.4795 89.9689 77.4386 89.9689 73.0006C89.9689 67.5386 85.3194 56.2233 78.1328 56.2651C78.1006 56.2651 78.0665 56.2689 78.0342 56.2689C73.855 49.4561 70.9463 47.6152 68.2195 42.3394C72.9316 43.8346 80.4026 42.8486 86.0153 41.133L86.0115 41.1349Z" fill="#FBBA00"/>
<path id="Vector_23" d="M31.7769 43.333C30.5311 42.6947 29.8656 41.8132 29.5489 42.0336C29.3005 42.2083 29.2133 43.5724 29.7707 44.6534C30.3206 43.9923 30.9976 43.58 31.7769 43.333Z" fill="white"/>
<path id="Vector_24" d="M28.8578 46.3194C28.8805 46.2548 28.9052 46.1921 28.9298 46.1294C28.4046 46.1294 27.83 46.2605 27.7675 46.4486C27.7049 46.6385 28.16 47.7233 28.7819 48.3769C28.6113 47.672 28.6227 46.9767 28.8578 46.3213V46.3194Z" fill="white"/>
<path id="Vector_25" d="M29.2766 49.644C28.7779 49.5889 28.4006 49.6592 28.3835 49.7846C28.3532 50.0277 29.307 51.0707 30.9168 51.7509C30.2266 51.0859 29.6653 50.3716 29.2747 49.644H29.2766Z" fill="white"/>
<path id="Vector_26" d="M52.8461 18.2232C51.9188 17.7825 51.0883 13.7054 52.6507 12.6301C54.5697 11.3079 56.0373 15.3868 56.0848 15.875C56.1151 16.1847 53.2006 18.3923 52.8461 18.2232Z" fill="white"/>
<path id="Vector_27" d="M59.0876 20.6625C56.6187 21.7644 54.677 23.7706 53.8522 25.7066C52.8984 27.9427 54.7737 32.5611 59.1388 33.3571C60.6159 33.6269 62.0058 33.5224 63.0961 32.9829C65.6769 28.8603 63.5986 22.5605 59.0895 20.6606L59.0876 20.6625Z" fill="#F0869D"/>
<path id="Vector_28" d="M65.8175 20.2863C63.434 19.4694 61.0884 19.7695 59.0898 20.6625C63.599 22.5604 65.6791 28.8621 63.0965 32.9847C63.7071 32.6826 64.2266 32.2457 64.6116 31.6548C65.6621 30.0438 64.8277 29.3009 65.2297 27.783C65.6317 26.265 67.0842 24.9637 67.9508 23.9112C68.8154 22.8587 68.2598 21.1241 65.8175 20.2863Z" fill="#8D3200"/>
<path id="Vector_29" d="M66.1625 76.1958C66.1853 75.9298 66.2441 75.6563 66.3389 75.3808C66.2346 75.2744 66.1606 75.1414 66.1303 74.978C65.7302 72.7932 67.1998 67.7454 68.0663 67.4187C68.3659 65.8988 68.9196 64.3257 69.6743 62.8572C65.4458 54.0496 62.647 44.9305 63.6122 34.9526C62.7949 35.4637 61.8392 35.8076 60.8247 35.9291C57.2353 36.3585 52.1781 33.4632 50.8868 31.5767C49.4267 33.0015 47.3333 37.3825 46.0382 41.298C44.2672 50.5179 40.3364 57.4484 42.0259 70.143C43.4973 81.2018 56.509 94.9356 73.6809 91.9054C69.3121 87.4123 65.8269 80.2842 66.1644 76.1958H66.1625Z" fill="#FFF1C4"/>
<path id="Vector_30" d="M71.3479 18.1374C71.1089 10.2912 61.3227 7.97721 57.3615 12.1359C56.8666 12.6565 57.0885 12.8502 57.6156 12.362C61.81 8.47496 70.5135 11.0017 70.7316 18.1526C70.8814 23.0903 67.8247 23.2689 65.7067 29.202C65.6915 29.2457 65.6896 29.2913 65.7029 29.335C66.5827 32.1771 64.2656 35.2168 60.8278 35.6291C57.4052 36.0356 52.3821 33.3949 51.0586 31.459C50.9638 31.3222 50.886 31.2842 50.7381 31.4267C49.5284 32.6065 47.6113 36.1971 46.4148 39.4287L45.7891 43.1923C46.9609 39.0753 49.2913 33.6305 50.8652 31.9035C52.4409 33.9021 57.4507 36.6455 60.8904 36.2332C64.7169 35.7754 67.1061 32.5856 66.1276 29.278C68.0693 23.8939 71.5128 23.588 71.3479 18.1393V18.1374Z" fill="#0D181C"/>
<path id="Vector_31" d="M65.9388 20.0334C60.3981 18.1355 55.1361 22.1555 53.6571 25.6226C52.7071 27.8473 54.3416 32.8344 59.0935 33.7007C62.2772 34.2801 63.9383 33.1003 64.7973 31.7857C65.916 30.0701 65.0419 29.3083 65.4325 27.8359C65.8326 26.3237 67.4387 24.8646 68.1118 24.0439C69.094 22.8489 68.747 20.9947 65.9407 20.0334H65.9388ZM67.7857 23.776C67.1049 24.6043 65.4552 26.0957 65.0248 27.7276C64.5868 29.3824 65.4552 29.9466 64.4256 31.5254C63.4737 32.9844 61.6268 33.5031 59.2376 33.068C54.9788 32.2929 53.2324 27.6934 54.0439 25.7898C55.8188 21.6292 61.2836 19.0265 65.7605 20.5596C68.2275 21.405 68.4247 22.9971 67.7857 23.776Z" fill="#0D181C"/>
<path id="Vector_32" d="M59.4374 20.5942L58.9141 20.8222C63.6678 22.7562 65.1905 29.3904 62.8487 32.9792L63.5028 32.7056C65.6399 28.7673 64.102 22.7904 59.4374 20.5942Z" fill="#0D181C"/>
<path id="Vector_33" d="M65.4178 13.4299C65.2775 13.2285 64.9988 12.9511 64.8148 12.7896C64.5626 12.5692 64.8584 12.252 65.1106 12.4705C65.3192 12.6509 65.5676 13.0499 65.6643 13.257C65.8464 13.6464 65.6416 13.7509 65.4178 13.428V13.4299Z" fill="#0D181C"/>
<path id="Vector_34" d="M68.6119 14.2638C68.7162 14.1384 68.7768 13.9542 68.8148 13.8326C68.8489 13.7224 68.9684 13.6597 69.0783 13.6958C69.1883 13.73 69.2509 13.8497 69.2149 13.9599C69.1599 14.1346 68.9911 14.3493 68.8337 14.4747C68.5095 14.7312 68.3142 14.6191 68.6119 14.2619V14.2638Z" fill="#0D181C"/>
<path id="Vector_35" d="M42.4123 70.0807C40.3549 54.3767 46.7148 47.5393 47.0864 34.1437C47.3196 25.7655 43.1575 18.398 49.8321 12.0906C53.9392 8.20924 58.7177 8.14464 61.6416 10.2819L62.256 10.2211C58.4408 6.99905 53.0803 8.19024 49.4358 11.6346C42.0975 18.569 46.8115 26.1093 46.5801 34.1304C46.1895 47.6704 39.5661 54.4223 41.6633 70.1889C43.294 82.4485 57.176 95.1298 73.7772 92.2021L73.3203 91.655C56.8366 94.2178 43.8932 81.3732 42.4142 70.0826L42.4123 70.0807Z" fill="#0D181C"/>
<path id="Vector_36" d="M66.667 92.3348C62.3266 96.8772 54.594 96.9931 48.3536 92.8363C42.4507 88.9056 39.7259 77.993 42.2251 71.8414L42.0449 70.9409C38.9409 77.425 41.1101 88.8619 48.0009 93.4519C54.4783 97.7645 62.8443 97.3408 67.2966 92.4127L66.667 92.3348Z" fill="#0D181C"/>
<path id="Vector_37" d="M68.8705 92.4511H68.3301C68.6278 95.7492 67.0331 102.963 64.8695 106.301C61.6574 111.261 53.9475 110.049 51.9166 106.66C50.76 104.728 53.3198 98.8687 55.9347 96.1634L55.2938 96.0513C52.6884 98.8782 49.8403 104.524 51.3573 107.059C53.3938 110.46 61.828 112.348 65.4801 106.711C67.8636 103.033 69.1436 95.7416 68.8686 92.4492L68.8705 92.4511Z" fill="#0D181C"/>
<path id="Vector_38" d="M85.4806 73.0404C83.7474 68.8323 79.5 67.5404 73.5573 69.4497C69.3534 70.8005 66.0104 73.6141 65.8038 76.1105C65.1837 83.6318 75.6147 98.4694 82.7292 96.0491C89.8608 93.623 87.0222 76.7811 85.4825 73.0404H85.4806ZM82.5187 95.4145C75.7038 97.7342 65.9858 82.7351 66.5224 76.2245C66.7139 73.8896 69.672 71.3172 73.7204 70.0158C77.0198 68.9557 82.5528 67.9393 84.7733 73.331C86.8686 78.4187 88.4538 93.395 82.5187 95.4145Z" fill="#0D181C"/>
<path id="Vector_39" d="M78.1403 55.8794C73.0017 55.8946 68.8054 61.9474 67.7227 67.5386L68.392 67.4037C69.4425 62.0462 73.4586 56.6431 78.1403 56.6298C84.9401 56.6089 89.6408 67.5918 89.6408 72.9968C89.6408 77.9344 88.5903 81.3769 87.0164 82.8321L87.06 83.4952C89.0738 81.8746 90.2684 77.8964 90.2684 73.0329C90.2684 66.1631 85.069 55.8623 78.1422 55.8832L78.1403 55.8794Z" fill="#0D181C"/>
<path id="Vector_40" d="M93.7096 28.3777C91.984 24.5496 86.9326 22.0817 81.4696 24.1772C73.7294 27.1466 69.4648 32.9088 65.6876 32.8879L65.3785 33.2963C69.389 33.7504 74.228 27.5893 81.6839 24.7301C86.6936 22.8093 91.5289 25.1062 93.1293 28.6551C94.4642 31.6169 93.4005 38.5171 85.8877 40.812C78.2518 43.145 68.7841 43.8631 65.3349 40.4948C64.7888 39.9628 64.4949 40.263 65.041 40.7968C68.5982 44.2697 78.2328 43.8631 86.0963 41.4599C94.5496 38.8761 95.1469 31.5618 93.7096 28.3739V28.3777Z" fill="#0D181C"/>
<path id="Vector_41" d="M68.6364 42.5519L67.9102 42.3145C70.5307 47.4459 73.7372 50.0011 77.5561 56.1793L78.3961 56.1242C73.9988 48.9429 71.4674 47.7612 68.6383 42.5519H68.6364Z" fill="#0D181C"/>
<path id="Vector_42" d="M45.7161 42.5276L45.8052 42.0317C38.6888 45.0297 30.9163 39.5677 28.5518 46.1809C26.8888 50.8298 35.1524 57.2512 42.4395 55.3077L42.5078 54.846C35.8844 56.6869 27.7193 50.4004 29.1396 46.4317C31.2804 40.4511 38.4442 45.3944 45.718 42.5276H45.7161Z" fill="#0D181C"/>
<path id="Vector_43" d="M31.3025 43.3958L31.9681 43.1413C30.9802 42.6701 29.8936 41.5378 29.431 41.8608C29.01 42.1553 29.046 43.8936 29.5049 44.777L29.9354 44.3552C29.5447 43.6599 29.4556 42.3471 29.6642 42.2084C29.85 42.085 30.4928 42.9038 31.3044 43.3939L31.3025 43.3958Z" fill="#0D181C"/>
<path id="Vector_44" d="M27.842 46.4809C27.8667 46.3821 28.4317 46.2358 28.7996 46.2149L28.9854 45.6963C28.4469 45.6982 27.55 46.0022 27.4362 46.3422C27.3263 46.6728 27.8591 47.9989 28.6498 48.7132L28.4147 47.6987C27.9767 47.1231 27.8174 46.5797 27.842 46.4809Z" fill="#0D181C"/>
<path id="Vector_45" d="M28.494 49.7943C28.5167 49.743 28.9282 49.6746 29.2202 49.743L28.9851 49.2718C28.6153 49.2585 27.9706 49.4048 27.9099 49.6252C27.8056 50.009 28.7746 51.2837 30.8908 51.905L30.2176 51.2324C29.1804 50.7233 28.4598 49.8722 28.494 49.7962V49.7943Z" fill="#0D181C"/>
<path id="Vector_46" d="M48.2403 36.0949L47.8516 36.8643C49.6567 35.2324 52.0232 34.4098 53.9175 34.1514L53.4245 33.8037C51.7937 34.0982 49.852 34.8923 48.2403 36.093V36.0949Z" fill="#0D181C"/>
<path id="Vector_47" d="M63.3903 37.6412C59.2964 36.1555 52.1364 36.2866 46.6336 39.8601L46.4648 40.4092C51.9581 36.602 59.3116 36.5184 63.3789 38.0648L63.3922 37.6412H63.3903Z" fill="#0D181C"/>
<path id="Vector_48" d="M63.8244 34.9263L63.3788 35.1675C62.535 44.3703 64.3363 52.3343 69.4959 63.0721L69.7708 62.5116C65.0398 52.3514 63.0033 43.2589 63.8244 34.9263Z" fill="#0D181C"/>
<path id="Vector_49" d="M45.6546 43.2892L45.5352 43.8496C49.521 40.8954 58.0974 39.9645 63.4352 41.4426L63.3746 41.0341C58.289 39.6757 50.0974 40.3122 45.6565 43.2911L45.6546 43.2892Z" fill="#0D181C"/>
<path id="Vector_50" d="M44.603 47.6017L44.3906 48.2838C48.2058 44.9515 58.0413 44.3113 63.8987 45.6601L63.8721 45.2726C58.394 44.0396 48.9586 44.4176 44.6049 47.6017H44.603Z" fill="#0D181C"/>
<path id="Vector_51" d="M64.694 49.6422L64.6258 49.2547C56.3166 48.5669 48.1839 49.2357 43.1058 53.1246L42.9883 53.7364C48.7413 48.926 59.7449 49.2205 64.6959 49.6422H64.694Z" fill="#0D181C"/>
<path id="Vector_52" d="M66.1943 54.5896L66.0445 54.185C58.143 53.5086 47.877 55.4503 41.9647 59.2537L41.8945 59.7818C47.6457 55.8929 58.8674 53.9019 66.1962 54.5896H66.1943Z" fill="#0D181C"/>
<path id="Vector_53" d="M68.2078 66.6514C62.6349 70.0387 51.5364 72.7707 42.6016 72.7935L42.6907 73.1791C52.0731 73.1374 61.6811 70.8804 68.0049 67.2308L68.2078 66.6514Z" fill="#0D181C"/>
<path id="Vector_54" d="M68.8225 61.1401L68.5987 60.7164C62.7755 59.9109 50.3346 61.3586 41.7031 66.0644L41.7259 66.509C49.8795 61.976 63.8677 60.3232 68.8206 61.1401H68.8225Z" fill="#0D181C"/>
<path id="Vector_55" d="M45.5 79.1237L45.7958 79.5512C51.4123 80.2921 58.5117 80.4859 66.142 76.4925V76.0156C60.6904 78.9299 52.844 80.161 45.5 79.1237Z" fill="#0D181C"/>
<path id="Vector_56" d="M67.5755 82.5815C62.7611 85.4807 54.9829 85.8321 49.4688 84.0672L50.121 84.6599C56.1377 86.3318 63.0114 85.8606 67.822 82.9976L67.5755 82.5815Z" fill="#0D181C"/>
<path id="Vector_57" d="M86.0996 61.2842L86.6494 61.9568C111.425 60.6953 122.214 79.1558 117.766 88.2674C117.592 88.6245 117.449 88.6435 117.281 88.2598C114.457 81.846 108.321 76.9634 103.029 76.9634C96.8263 76.9634 92.5883 81.8042 87.0951 85.8014V86.7703C92.8367 82.6515 97.2169 77.5429 103.033 77.5429C108.848 77.5429 114.3 83.0068 116.865 88.4706C117.226 89.2382 117.783 89.2933 118.164 88.5162C123.013 78.641 111.512 59.8689 86.0977 61.288L86.0996 61.2842Z" fill="#0D181C"/>
<path id="Vector_58" d="M70.6501 87.9541C67.8475 89.4987 62.1058 90.3688 57.043 89.4493L58.2565 90.0135C61.8783 90.4733 67.1668 90.3707 70.8643 88.3189L70.6482 87.956L70.6501 87.9541Z" fill="#0D181C"/>
<path id="Vector_59" d="M110.471 77.1552C102.221 72.2613 94.5829 76.1388 89.7495 76.9387L89.668 77.501C93.7808 76.8703 101.895 72.6622 110.217 77.5979C113.363 79.4635 116.619 83.2176 117.184 88.5978L117.618 88.6909C117.077 83.0846 113.736 79.0949 110.471 77.1571V77.1552Z" fill="#0D181C"/>
<path id="Vector_60" d="M90.6698 76.9999C90.374 79.3671 88.7774 82.2738 87.0234 84.318L87.0367 84.9506C89.3501 82.4638 90.8026 79.1695 91.0585 76.9087L90.6717 76.998L90.6698 76.9999Z" fill="#0D181C"/>
<path id="Vector_61" d="M95.5933 75.8258C95.1363 78.6261 93.5265 80.543 92.2143 82.1237C92.165 82.1845 92.1157 82.2434 92.0664 82.3023L93.297 81.4664C94.4746 79.9845 95.635 78.1949 95.9877 75.7251L95.5952 75.8277L95.5933 75.8258Z" fill="#0D181C"/>
<path id="Vector_62" d="M100.076 75.0754C99.5997 76.1298 98.7408 77.3722 97.6523 78.5634L98.5208 78.2006C99.4424 77.0759 100.097 76.0044 100.493 75.064L100.074 75.0773L100.076 75.0754Z" fill="#0D181C"/>
<path id="Vector_63" d="M102.787 77.2107L103.316 77.2924C104.003 76.6275 104.48 75.9967 104.856 75.3299L104.475 75.2539C104.076 75.915 103.498 76.5534 102.785 77.2107H102.787Z" fill="#0D181C"/>
<path id="Vector_64" d="M106.994 78.1052L107.44 78.3161C108.109 77.8507 108.583 77.2465 108.917 76.6557L108.606 76.4961C108.266 77.0831 107.686 77.6816 106.992 78.1033L106.994 78.1052Z" fill="#0D181C"/>
<path id="Vector_65" d="M112.079 78.7095C111.455 79.2433 110.659 79.4998 109.973 79.6005L110.428 79.952C111.093 79.8 111.78 79.458 112.364 78.9375L112.079 78.7095Z" fill="#0D181C"/>
<path id="Vector_66" d="M112.395 81.6811L112.778 82.1294C112.821 82.1294 112.863 82.1332 112.907 82.1332C113.553 82.1332 114.234 81.9755 114.789 81.6241L114.568 81.3125C113.942 81.7001 113.085 81.7571 112.395 81.6792V81.6811Z" fill="#0D181C"/>
<path id="Vector_67" d="M114.473 84.086L114.88 84.561C114.95 84.5648 115.019 84.5724 115.089 84.5724C115.489 84.5724 115.887 84.4698 116.229 84.3064L116.079 83.9663C115.627 84.1962 115.038 84.2019 114.475 84.086H114.473Z" fill="#0D181C"/>
<path id="Vector_68" d="M52.7061 12.1151C52.359 11.8776 52.4975 11.6629 52.89 11.8586C53.4873 12.1569 54.9075 12.6167 55.5276 12.4685C55.8841 12.383 55.9201 12.0714 55.9713 12.0543C56.0547 12.0277 56.1325 12.5806 55.6129 12.7363C54.8525 12.9643 53.3527 12.5559 52.7061 12.1132V12.1151Z" fill="#0D181C"/>
<path id="Vector_69" d="M52.83 18.4397C51.8213 18.2478 50.7537 13.6464 52.483 12.4553C54.5689 11.019 56.173 15.2252 56.2337 15.8331C56.2754 16.2435 53.4311 18.5537 52.8319 18.4397H52.83ZM52.7694 12.801C51.5198 13.7167 52.0355 17.5088 52.9116 18.0179C53.378 17.9628 55.8014 16.1903 55.9133 15.8464C55.9948 15.59 54.4361 11.5813 52.7694 12.801Z" fill="#0D181C"/>
<path id="Vector_70" d="M48.5005 10.2802C48.0682 10.5442 47.9202 12.6321 47.9259 13.6504L48.4455 13.0444C48.4683 11.8342 48.5441 10.7684 48.7204 10.6392C48.8892 10.5157 49.843 10.6316 50.7626 10.8159L51.2955 10.4245C50.2829 10.1871 48.8646 10.056 48.5005 10.2783V10.2802Z" fill="#0D181C"/>
<path id="Vector_71" d="M64.2338 0.174744C62.8306 -0.543388 61.9754 1.14365 63.2686 1.77059C66.1451 3.16316 69.3744 6.15347 68.9212 6.9932C68.2689 8.20338 63.1131 6.06418 61.5696 6.9096C60.7619 7.35226 60.4186 8.10459 60.0508 9.0089L60.4148 9.23688C60.7751 8.34207 61.107 7.70943 61.8199 7.33896C63.2971 6.56954 68.4111 8.83032 69.2909 7.19458C70.0058 5.8666 66.5396 3.00927 63.4905 1.38303C62.7206 0.972668 63.2042 0.188043 64.0271 0.617402C67.5161 2.43743 71.0468 5.9217 70.1366 7.58594C68.9117 9.82963 63.2478 7.29527 62.1897 8.06089C61.6815 8.42946 61.3611 9.0735 61.1638 9.70614L61.5355 9.93981C61.7422 9.22168 62.0588 8.67833 62.4362 8.40286C63.2079 7.87851 69.2151 10.2856 70.5614 7.81962C71.8299 5.49804 67.0041 1.59581 64.23 0.174744H64.2338Z" fill="#0D181C"/>
<path id="Vector_72" d="M52.2673 13.5057C52.1535 13.5836 52.0322 13.6976 51.9013 13.8571C51.4993 15.4796 52.144 17.8886 52.8456 18.221C53.0656 18.3255 54.2659 17.52 55.14 16.8171C55.4719 14.7349 53.3007 12.8008 52.2673 13.5057Z" fill="#0D181C"/>
<path id="Vector_73" d="M52.8908 14.0699C53.217 13.9521 53.5128 14.1383 53.6133 14.446C53.7214 14.7785 53.5545 15.0977 53.2852 15.206C53.0141 15.3143 52.6538 15.1756 52.5476 14.8317C52.4642 14.56 52.5325 14.1972 52.8889 14.068L52.8908 14.0699Z" fill="white"/>
<path id="Vector_74" d="M54.0392 10.9391C53.8174 10.9391 53.5803 10.8137 53.3357 10.5667C51.5988 8.82837 50.1008 7.32561 47.6472 6.88296C47.4139 6.84116 47.1788 6.82026 46.9266 6.82026C45.9804 6.82026 45.0152 7.11663 43.9913 7.4301C42.827 7.78727 41.6248 8.15584 40.2861 8.15584C39.8216 8.15584 39.3589 8.11024 38.9114 8.01715C35.6044 7.33891 33.293 4.57468 33.293 1.29559C33.293 0.678146 33.64 0.396973 33.9604 0.396973C34.1121 0.396973 34.2581 0.459667 34.37 0.573656C34.5122 0.719942 34.5881 0.942221 34.5805 1.1968C34.5084 3.90974 36.3345 6.16862 39.1238 6.81836C39.5125 6.90955 39.8936 6.95325 40.2918 6.95325C41.3802 6.95325 42.3682 6.62268 43.4149 6.27121C44.5014 5.90645 45.6258 5.53028 46.9057 5.53028C47.2091 5.53028 47.5144 5.55118 47.8159 5.59488C49.86 5.88555 52.3687 7.489 54.3635 9.78018C54.574 10.0215 54.6327 10.3596 54.5133 10.6237C54.4242 10.8194 54.2459 10.9372 54.0373 10.9372L54.0392 10.9391Z" fill="#FFF1C4"/>
<path id="Vector_75" d="M51.3967 106.084C50.5662 108.071 51.0346 111.24 51.5181 111.335C52.068 111.441 53.8372 108.73 53.9851 107.737C54.3757 105.1 52.0718 104.475 51.3986 106.086L51.3967 106.084Z" fill="white"/>
<path id="Vector_76" d="M54.9598 107.4C54.0857 109.479 54.7721 114.154 55.1476 114.236C55.5496 114.321 58.8376 109.686 58.9665 108.905C59.2604 107.119 55.9648 105.01 54.9598 107.4Z" fill="white"/>
<path id="Vector_77" d="M60.2836 107.79C59.728 108.689 60.0162 112.602 60.2172 112.692C60.4789 112.807 63.6892 109.568 63.5545 108.261C63.4332 107.093 61.2222 106.274 60.2836 107.792V107.79Z" fill="white"/>
<path id="Vector_78" d="M71.357 71.7485C70.7957 69.9019 71.9088 65.0004 72.4757 64.7971C72.9365 64.6318 76.3496 68.5302 76.7175 69.805C77.44 72.309 72.0491 74.0207 71.3589 71.7485H71.357Z" fill="white"/>
<path id="Vector_79" d="M78.4911 64.7973C77.8521 64.8847 78.1859 69.467 78.5234 70.2004C79.6232 72.5884 83.4876 72.1762 83.061 70.1339C82.7291 68.5456 79.2136 64.6985 78.4911 64.7973Z" fill="white"/>
<path id="Vector_80" d="M70.6356 73.0007C70.5673 72.1838 68.5593 67.3678 68.1364 67.4001C67.2812 67.4666 65.7188 72.7329 66.1302 74.9765C66.426 76.5914 70.8328 75.3717 70.6356 73.0007Z" fill="white"/>
<path id="Vector_81" d="M84.5623 25.1498C85.2013 24.008 88.3641 21.4186 88.8078 21.6959C89.0354 21.8384 88.933 24.8382 88.5803 26.1206C88.1252 27.7754 83.6331 26.8122 84.5642 25.1498H84.5623Z" fill="white"/>
<path id="Vector_82" d="M89.4303 26.6906C89.946 26.1852 92.5628 26.0903 94.1423 26.1966C95.6555 26.2992 95.6934 26.7666 94.9387 27.7697C94.4021 28.4821 93.5526 29.5042 92.7638 30.6308C92.1361 31.5294 90.4296 30.9481 89.5213 29.7018C88.8007 28.7139 88.6813 27.4239 89.4303 26.6925V26.6906Z" fill="white"/>
<path id="Vector_83" d="M93.3335 31.5713C94.5262 31.6644 97.1259 33.2469 96.9799 33.6839C96.8661 34.0259 94.1034 35.1107 93.0775 35.2247C91.9038 35.3557 91.881 31.4573 93.3335 31.5713Z" fill="white"/>
<path id="Vector_84" d="M51.1615 105.968C50.3063 108.014 50.8296 111.417 51.4781 111.542C52.2082 111.683 54.0816 108.757 54.2276 107.767C54.6467 104.94 51.9654 104.043 51.1615 105.968ZM53.7308 107.693C53.5753 108.742 51.8156 111.196 51.5672 111.124C51.334 111.058 50.8107 108.21 51.6279 106.253C52.2138 104.851 54.0759 105.37 53.7308 107.693Z" fill="#0D181C"/>
<path id="Vector_85" d="M54.687 107.258C53.8451 109.26 54.4595 113.503 54.8539 114.261C54.9714 114.487 55.1648 114.55 55.381 114.401C56.1717 113.862 59.0862 109.737 59.2075 108.956C59.564 106.652 55.7261 104.699 54.687 107.258ZM58.7183 108.86C58.6121 109.416 55.436 114.033 55.2122 113.976C54.9032 113.896 54.4803 109.224 55.2066 107.551C56.0447 105.618 59.016 107.3 58.7183 108.861V108.86Z" fill="#0D181C"/>
<path id="Vector_86" d="M63.8252 108.237C63.681 106.838 61.0852 106.018 60.0764 107.65C59.5511 108.501 59.6915 112.688 60.1314 112.884C60.5296 113.062 63.9844 109.783 63.8252 108.237ZM60.3362 112.409C60.1864 111.649 60.0328 108.656 60.486 107.925C61.2615 106.671 63.1482 107.226 63.2582 108.284C63.3663 109.329 61.0359 111.913 60.3362 112.409Z" fill="#0D181C"/>
<path id="Vector_87" d="M76.9964 69.7293C76.5489 68.179 73.0447 64.3015 72.4076 64.5143C71.4993 64.8182 70.6043 70.1624 71.0898 71.8267C71.8179 74.323 77.8364 72.6379 76.9964 69.7293ZM71.5885 71.6234C71.1561 70.2023 72.0227 65.2096 72.5498 65.0975C72.8532 65.0329 76.0578 68.5856 76.4427 69.9212C77.0571 72.049 72.1801 73.5783 71.5866 71.6234H71.5885Z" fill="#0D181C"/>
<path id="Vector_88" d="M78.2978 70.303C77.93 69.5032 77.5204 64.6643 78.404 64.5428C79.3711 64.4117 83.0478 68.3424 83.41 70.0731C83.9182 72.5068 79.5133 72.9456 78.2978 70.303ZM78.5652 65.0576C78.1177 65.2229 78.404 69.3018 78.77 70.0959C79.7086 72.1325 83.1028 71.8058 82.752 70.1358C82.4164 68.5305 79.0089 64.8923 78.5652 65.0557V65.0576Z" fill="#0D181C"/>
<path id="Vector_89" d="M70.8861 72.9796C70.8178 72.1532 68.7623 66.9572 68.1309 67.094C66.9951 67.3371 65.3738 72.5369 65.863 75.1739C66.21 77.0395 71.1231 75.8122 70.8861 72.9815V72.9796ZM66.4167 74.887C66.047 72.8656 67.452 67.8463 68.1024 67.7019C68.3015 67.6563 70.3248 72.1133 70.4025 73.0442C70.5732 75.1036 66.6386 76.0991 66.4167 74.887Z" fill="#0D181C"/>
<path id="Vector_90" d="M34.3695 1.19498C34.3658 3.94971 36.1444 6.34349 39.0759 7.02742C42.2805 7.77405 44.4838 5.33658 47.787 5.80774C49.9164 6.10981 52.3701 7.81395 54.2056 9.92275C54.5906 10.3521 54.2018 11.1728 53.4832 10.4186C51.7501 8.68216 50.2009 7.13001 47.6827 6.67595C45.0925 6.2086 42.0662 8.45229 38.9526 7.81395C35.6514 7.13571 33.4992 4.35818 33.503 1.29947C33.503 0.454047 34.3714 0.338158 34.3695 1.19688V1.19498ZM33.082 1.29757C33.082 4.67735 35.4655 7.62207 38.873 8.3212C42.0302 8.96904 45.3504 6.68165 47.6088 7.09012C49.998 7.52137 51.4751 9.00133 53.1855 10.7169C54.2303 11.8264 55.3813 10.6295 54.5223 9.64537C52.4953 7.31809 49.9487 5.58166 47.8572 5.28529C44.6526 4.82933 42.2729 7.33899 39.1707 6.61706C36.4819 5.99202 34.7981 3.82433 34.8663 1.21587C34.9081 -0.355276 33.082 -0.267884 33.082 1.30137V1.29757Z" fill="#0D181C"/>
<path id="Vector_91" d="M88.915 21.5172C88.2836 21.1201 84.9198 24.0116 84.3376 25.0508C83.2151 27.0551 88.2817 28.2425 88.7975 26.2211C89.044 25.2579 89.3606 21.7983 88.915 21.5172ZM88.3727 26.0634C87.9973 27.4541 84.1025 26.4814 84.7681 25.2731C85.3805 24.1636 88.3822 21.7945 88.6647 21.8895C88.8107 21.9389 88.6951 24.8703 88.3727 26.0634Z" fill="#0D181C"/>
<path id="Vector_92" d="M94.209 25.9916C92.5176 25.8472 89.9407 25.9878 89.2941 26.5274C88.4351 27.2455 88.3365 29.1396 89.7852 30.4334C90.9286 31.4555 92.3394 31.6189 92.9348 30.8324C93.4923 30.0952 94.5067 28.7806 95.1003 27.9655C95.8587 26.9206 96.0844 26.1512 94.209 25.9916ZM92.5385 30.5037C92.072 31.0242 90.9798 30.6975 90.1626 29.9907C89.2941 29.2422 88.7063 27.5419 89.6278 26.8351C90.1645 26.4248 92.8343 26.288 94.1654 26.3906C95.2956 26.478 95.4624 26.687 94.7912 27.6217C94.0934 28.5944 93.1548 29.8198 92.5404 30.5037H92.5385Z" fill="#0D181C"/>
<path id="Vector_93" d="M93.3577 31.347C91.6966 31.2102 91.4634 35.4506 92.9955 35.4506C93.8753 35.4506 97.1595 34.1093 97.1918 33.6914C97.2449 32.9751 94.3683 31.4268 93.3577 31.347ZM93.0505 34.9794C92.1763 35.063 92.2105 31.7441 93.2932 31.7972C94.5257 31.858 96.767 33.3798 96.7632 33.623C96.7594 33.8206 94.0706 34.8807 93.0486 34.9794H93.0505Z" fill="#0D181C"/>
<path id="Vector_94" d="M54.7427 71.9726C54.7427 72.8313 54.0487 73.5266 53.1916 73.5266H35.7979V83.2955H50.7133C51.5704 83.2955 52.2644 83.9927 52.2644 84.8496V87.363C52.2644 88.2217 51.5704 88.9171 50.7133 88.9171H35.7979V99.6739H53.1291C53.9862 99.6739 54.6802 100.369 54.6802 101.228V103.916C54.6802 104.775 53.9862 105.47 53.1291 105.47H30.5511C29.694 105.47 29 104.775 29 103.916V69.4344C29 68.5757 29.694 67.8804 30.5511 67.8804H53.1898C54.0468 67.8804 54.7408 68.5757 54.7408 69.4344V71.9745L54.7427 71.9726Z" fill="#1D1D1B"/>
<path id="Vector_95" d="M0 69.4325C0 68.5738 0.694007 67.8784 1.55109 67.8784H24.0646C24.9217 67.8784 25.6157 68.5738 25.6157 69.4325V71.9345C25.6157 72.7933 24.9217 73.4886 24.0646 73.4886H6.41672V83.2138H18.3267C19.1838 83.2138 19.8778 83.9091 19.8778 84.7678V87.4732C19.8778 88.3319 19.1838 89.0272 18.3267 89.0272H6.41672V103.914C6.41672 104.773 5.72271 105.468 4.86563 105.468H1.55109C0.694007 105.468 0 104.773 0 103.914V69.4325Z" fill="#1D1D1B"/>
<path id="Vector_96" d="M68.1529 84.7834C66.5468 81.6715 65.6044 78.4988 65.8035 76.0822C65.8225 75.8504 65.8699 75.6149 65.94 75.3774C65.9059 75.3052 65.8775 75.2292 65.8623 75.1437C65.5854 73.6486 65.9874 71.3289 66.5942 69.5544L66.2226 68.88C65.7732 68.0517 65.1835 67.875 64.0704 67.875H60.68C59.8229 67.875 59.1289 68.5703 59.1289 69.4291V103.911C59.1289 104.769 59.8229 105.465 60.68 105.465H64.0969C64.954 105.465 65.648 104.769 65.648 103.911V80.1953L68.1548 84.7777L68.1529 84.7834Z" fill="#1D1D1B"/>
<path id="Vector_97" d="M82.73 96.0206C78.219 97.5557 72.3749 92.1507 68.8594 86.0713L78.9206 104.465C79.37 105.294 79.9616 105.47 81.0728 105.47H84.3361C85.1932 105.47 85.8872 104.775 85.8872 103.916V93.0816C85.1685 94.4856 84.1465 95.54 82.7281 96.0225L82.73 96.0206Z" fill="#1D1D1B"/>
</g>
<defs>
<clipPath id="clip0_1976_13652">
<rect width="129" height="123" fill="white"/>
</clipPath>
</defs>
</svg>
