<svg width="101" height="30" viewBox="0 0 101 30" fill="none" xmlns="http://www.w3.org/2000/svg">
<path fill-rule="evenodd" clip-rule="evenodd" d="M96.1214 29.233C95.4575 29.233 94.9193 28.692 94.9193 28.0245V1.20883C94.9193 0.541086 95.4575 0 96.1214 0H98.7669C99.4308 0 99.9689 0.541086 99.9689 1.20883V28.0245C99.9689 28.692 99.4308 29.233 98.7669 29.233H96.1214Z" fill="#AB8D3F"/>
<path fill-rule="evenodd" clip-rule="evenodd" d="M78.9555 24.8515H75.5066V4.42064H77.7996C83.4839 4.42064 86.8775 8.29043 86.8775 14.7732C86.8775 21.7248 82.2449 24.8515 78.9555 24.8515ZM77.8829 0.000278473H71.6596C70.9962 0.000278473 70.4575 0.541365 70.4575 1.20884V28.0245C70.4575 28.692 70.9962 29.233 71.6596 29.233H77.8829C89.3121 29.233 91.7113 21.3579 91.7113 14.7515C91.7113 5.79058 86.2832 0.000278473 77.8829 0.000278473Z" fill="#AB8D3F"/>
<path fill-rule="evenodd" clip-rule="evenodd" d="M50.8732 9.58252L50.8734 28.0245C50.8734 28.692 50.3353 29.233 49.6714 29.233H47.0234C46.3598 29.233 45.8217 28.692 45.8217 28.0245V1.20883C45.8217 0.541086 46.3598 0 47.0234 0H49.6512C50.5133 0 50.9703 0.136696 51.3191 0.781117L61.5456 19.3682L61.5451 1.20883C61.5451 0.541086 62.0833 0 62.7474 0H65.3554C66.0193 0 66.5578 0.541086 66.5578 1.20883V28.0245C66.5578 28.692 66.0193 29.233 65.3554 29.233H62.827C61.9649 29.233 61.5076 29.0966 61.1588 28.4522L50.8732 9.58252Z" fill="#AB8D3F"/>
<path fill-rule="evenodd" clip-rule="evenodd" d="M42.4226 3.18387C42.4226 3.85134 41.8845 4.39243 41.2206 4.39243H27.7413V11.9891H39.2996C39.9635 11.9891 40.5017 12.5307 40.5017 13.1976V15.1515C40.5017 15.819 39.9635 16.3601 39.2996 16.3601L27.7415 16.3598V24.7253H41.1728C41.837 24.7253 42.3749 25.2664 42.3749 25.9339V28.0245C42.3749 28.692 41.837 29.233 41.1728 29.233H23.6765C23.0127 29.233 22.4745 28.692 22.4745 28.0245V1.20883C22.4745 0.541086 23.0127 0 23.6765 0H41.2206C41.8845 0 42.4226 0.541086 42.4226 1.20883V3.18387Z" fill="#AB8D3F"/>
<path fill-rule="evenodd" clip-rule="evenodd" d="M0 1.20885C0 0.541376 0.538169 0.000289917 1.20205 0.000289917H18.649C19.3129 0.000289917 19.851 0.541376 19.851 1.20885V3.15432C19.851 3.8218 19.3129 4.36315 18.649 4.36315L4.9722 4.36261V11.9256L14.202 11.9259C14.8656 11.9259 15.4041 12.467 15.4041 13.1342V15.2378C15.4041 15.9052 14.8656 16.4469 14.202 16.4469H4.9722V28.0245C4.9722 28.692 4.4343 29.2331 3.77015 29.2331H1.20205C0.538169 29.2331 0 28.692 0 28.0245V1.20885Z" fill="#AB8D3F"/>
</svg>
