<svg width="260" height="65" viewBox="0 0 260 65" fill="none" xmlns="http://www.w3.org/2000/svg">
<path d="M11.5435 10.7054V26.3482H36.3069V36.9622H11.5435V64.7962H0V0H39.7509V10.7054H11.5435Z" fill="black"/>
<path d="M63.5769 10.7054V26.3482H89.5517V37.0536H63.5769V54.0908H92.9957V64.7962H51.9419V0H92.9957V10.7054H63.5769Z" fill="black"/>
<path d="M152.199 64.7962L115.801 19.5516L116.083 64.7962H104.44V0H115.428L151.735 44.5969L151.46 0H163.004V64.7962H152.199Z" fill="black"/>
<path d="M200.888 64.7962H177.519V0H200.888C222.207 0 235.618 13.8751 235.618 32.0247C235.618 50.1744 222.306 64.7962 200.888 64.7962ZM200.423 10.7054H189.162V54.0908H200.423C214.199 54.0908 223.602 46.1741 223.602 32.1238C223.602 18.0734 214.382 10.713 200.423 10.713" fill="black"/>
<path d="M260 0H248.365V64.7962H260V0Z" fill="black"/>
</svg>
